<?xml version="1.0" encoding="UTF-8" standalone="no"?>
<svg
   xmlns:dc="http://purl.org/dc/elements/1.1/"
   xmlns:cc="http://creativecommons.org/ns#"
   xmlns:rdf="http://www.w3.org/1999/02/22-rdf-syntax-ns#"
   xmlns:svg="http://www.w3.org/2000/svg"
   xmlns="http://www.w3.org/2000/svg"
   version="1.1"
   id="svg833"
   xml:space="preserve"
   width="571.61865"
   height="180.07622"
   viewBox="0 0 571.61865 180.07622"><metadata
     id="metadata839"><rdf:RDF><cc:Work
         rdf:about=""><dc:format>image/svg+xml</dc:format><dc:type
           rdf:resource="http://purl.org/dc/dcmitype/StillImage" /><dc:title></dc:title></cc:Work></rdf:RDF></metadata><defs
     id="defs837"><clipPath
       clipPathUnits="userSpaceOnUse"
       id="clipPath849"><path
         d="M 0,792 H 612 V 0 H 0 Z"
         id="path847" /></clipPath></defs><g
     id="g841"
     transform="matrix(1.3333333,0,0,-1.3333333,-122.19093,618.03808)"><path
       d="m 209.6016,369.8994 c 0.095,0.34 0.143,0.537 0.145,0.59 -0.27,0.258 -0.525,0.365 -0.933,0.525 -0.231,0.092 -0.536,0.199 -0.914,0.326 l -1.367,0.459 -1.245,0.397 c -0.209,0.066 -0.347,0.103 -0.414,0.111 -0.197,-0.033 -0.236,-0.07 -0.274,-0.127 -0.039,-0.056 -0.117,-0.232 -0.238,-0.525 l -0.357,0.119 0.292,0.787 0.193,0.623 0.118,0.397 c 0.96,0.328 2.077,0.742 3.353,1.24 0.919,0.357 1.646,0.666 2.185,0.926 l -0.984,0.328 c -1.527,0.513 -2.432,0.797 -2.714,0.853 -0.108,0.024 -0.185,0.022 -0.229,-0.008 -0.074,-0.048 -0.176,-0.261 -0.308,-0.636 l -0.358,0.119 c 0.133,0.342 0.248,0.656 0.345,0.947 0.094,0.279 0.206,0.645 0.338,1.094 l 0.358,-0.119 c -0.108,-0.35 -0.151,-0.565 -0.13,-0.645 0.176,-0.158 0.491,-0.295 0.995,-0.48 l 1.114,-0.391 c 1.889,-0.633 3.041,-1 3.457,-1.097 l -0.335,-0.76 c -1.332,-0.573 -3.306,-1.358 -5.923,-2.354 l 2.122,-0.711 c 0.44,-0.148 0.901,-0.293 1.384,-0.435 0.333,-0.1 0.539,-0.149 0.618,-0.151 0.279,0.334 0.335,0.467 0.364,0.551 l 0.37,-0.029 -0.317,-0.916 c -0.092,-0.276 -0.209,-0.653 -0.349,-1.129 z m -5.808,-5.178 c 0.62,-0.322 1.176,-0.506 1.672,-0.547 0.491,-0.041 0.89,0.03 1.196,0.207 0.306,0.178 0.553,0.448 0.74,0.809 0.175,0.336 0.25,0.676 0.228,1.021 -0.022,0.35 -0.183,0.698 -0.486,1.043 -0.3,0.35 -0.722,0.666 -1.264,0.948 -0.372,0.193 -0.734,0.33 -1.085,0.408 -0.349,0.08 -0.671,0.101 -0.965,0.062 -0.296,-0.039 -0.556,-0.13 -0.778,-0.279 -0.22,-0.144 -0.419,-0.387 -0.596,-0.726 -0.202,-0.389 -0.282,-0.766 -0.241,-1.135 0.039,-0.365 0.204,-0.703 0.495,-1.014 0.293,-0.307 0.654,-0.572 1.084,-0.797 m -0.403,-1.349 c -0.486,0.254 -0.872,0.547 -1.157,0.881 -0.284,0.337 -0.481,0.707 -0.591,1.113 -0.11,0.404 -0.137,0.797 -0.082,1.176 0.074,0.486 0.238,0.97 0.491,1.457 0.251,0.482 0.547,0.886 0.887,1.209 0.255,0.238 0.539,0.418 0.852,0.539 0.311,0.123 0.601,0.191 0.866,0.201 0.265,0.01 0.535,-0.02 0.81,-0.088 0.276,-0.066 0.561,-0.176 0.856,-0.33 0.5,-0.26 0.919,-0.588 1.256,-0.983 0.252,-0.293 0.438,-0.628 0.557,-1.003 0.12,-0.374 0.164,-0.75 0.133,-1.133 -0.045,-0.524 -0.212,-1.061 -0.5,-1.614 -0.311,-0.597 -0.686,-1.054 -1.125,-1.373 -0.44,-0.314 -0.935,-0.484 -1.484,-0.507 -0.55,-0.026 -1.14,0.127 -1.769,0.455 m -3.384,0.781 0.333,-0.213 c -0.155,-0.26 -0.241,-0.418 -0.259,-0.475 0.042,-0.254 0.116,-0.318 0.232,-0.404 l 0.365,-0.246 0.994,-0.656 1.526,-0.973 0.701,-0.432 c 0.26,-0.166 0.438,-0.259 0.532,-0.285 0.149,0.01 0.188,0.039 0.233,0.08 0.043,0.047 0.146,0.194 0.31,0.438 l 0.333,-0.213 c -0.278,-0.402 -0.565,-0.836 -0.863,-1.303 -0.259,-0.408 -0.482,-0.775 -0.67,-1.103 l -0.333,0.213 c 0.158,0.269 0.245,0.425 0.263,0.472 l -0.347,0.465 c -0.291,0.215 -0.565,0.402 -0.822,0.568 l -1.583,1.008 -0.975,0.612 c -0.329,0.191 -0.54,0.304 -0.631,0.338 -0.24,-0.088 -0.352,-0.241 -0.538,-0.508 l -0.333,0.211 c 0.217,0.308 0.458,0.67 0.719,1.08 0.295,0.463 0.566,0.904 0.813,1.326 m 2.369,-6.504 0.226,-0.443 c -0.078,-0.416 -0.182,-0.764 -0.312,-1.043 -0.126,-0.28 -0.328,-0.592 -0.605,-0.942 -0.396,-0.498 -0.824,-0.873 -1.284,-1.131 -0.365,-0.199 -0.735,-0.32 -1.109,-0.363 -0.375,-0.041 -0.729,-0.021 -1.062,0.059 -0.504,0.123 -0.971,0.355 -1.403,0.699 -0.738,0.586 -1.141,1.318 -1.206,2.193 -0.066,0.879 0.267,1.778 0.999,2.7 0.253,0.316 0.501,0.58 0.748,0.794 0.248,0.215 0.564,0.442 0.948,0.68 l 0.405,-0.437 c 0.237,-0.246 0.464,-0.463 0.681,-0.653 l -0.217,-0.273 c -0.262,0.201 -0.478,0.353 -0.647,0.457 -0.289,-0.026 -0.552,-0.106 -0.788,-0.238 -0.237,-0.131 -0.477,-0.348 -0.719,-0.651 -0.437,-0.551 -0.614,-1.131 -0.527,-1.74 0.084,-0.606 0.438,-1.156 1.061,-1.652 0.377,-0.301 0.75,-0.508 1.12,-0.621 0.37,-0.112 0.722,-0.149 1.054,-0.112 0.33,0.039 0.612,0.121 0.845,0.24 0.315,0.166 0.618,0.43 0.907,0.793 0.19,0.241 0.343,0.487 0.458,0.745 0.116,0.255 0.208,0.56 0.277,0.916 z m -11.935,-5.67 -0.26,0.268 0.969,0.908 1.404,1.435 c 0.28,0.276 0.529,0.463 0.748,0.565 0.219,0.103 0.461,0.135 0.725,0.096 0.266,-0.036 0.518,-0.176 0.755,-0.416 0.237,-0.243 0.402,-0.522 0.492,-0.84 0.093,-0.317 0.086,-0.66 -0.021,-1.03 -0.108,-0.365 -0.297,-0.681 -0.568,-0.947 l -0.438,-0.342 c -0.08,0.037 -0.193,0.077 -0.339,0.114 l 0.164,0.23 c 0.332,0.307 0.432,0.547 0.423,0.824 -0.01,0.282 -0.152,0.561 -0.427,0.84 -0.288,0.293 -0.574,0.444 -0.861,0.453 -0.285,0.008 -0.554,-0.111 -0.806,-0.357 -0.12,-0.119 -0.24,-0.264 -0.36,-0.436 0.12,-0.142 0.305,-0.343 0.555,-0.601 l 0.607,-0.639 1.193,-1.215 0.926,-0.916 c 0.189,-0.179 0.317,-0.287 0.381,-0.318 0.135,-0.012 0.184,0.014 0.245,0.058 l 0.462,0.395 0.276,-0.281 -1.251,-1.194 c -0.303,-0.297 -0.587,-0.588 -0.85,-0.871 l -0.277,0.282 c 0.233,0.238 0.365,0.402 0.395,0.496 -0.017,0.136 -0.081,0.226 -0.197,0.361 -0.312,0.363 -0.674,0.756 -1.086,1.174 l -1.111,1.133 -0.605,0.589 -0.491,0.469 c -0.285,0.104 -0.333,0.08 -0.398,0.037 z m -0.606,-8.078 c -0.063,0.367 -0.002,0.525 0.032,0.668 -0.064,0.109 -0.181,0.277 -0.346,0.506 -0.302,0.418 -0.526,0.719 -0.671,0.9 l -1.258,1.584 -0.556,0.676 c -0.218,0.26 -0.363,0.408 -0.435,0.447 -0.181,-0.012 -0.366,-0.125 -0.652,-0.328 l -0.237,0.299 0.829,0.631 0.467,0.365 1.064,0.863 0.699,0.584 0.525,0.395 0.529,-0.514 0.368,-0.535 -0.274,-0.219 c -0.225,0.274 -0.37,0.436 -0.438,0.487 -0.145,0.033 -0.254,-0.024 -0.423,-0.131 -0.253,-0.16 -0.491,-0.328 -0.713,-0.504 -0.208,-0.166 -0.415,-0.344 -0.62,-0.533 0.178,-0.291 0.428,-0.641 0.753,-1.049 l 0.574,-0.721 c 0.168,0.115 0.339,0.242 0.512,0.379 l 0.573,0.478 c 0.153,0.428 0.051,0.59 -0.11,0.803 l 0.284,0.227 0.602,-0.785 0.626,-0.76 -0.302,-0.24 c -0.214,0.273 -0.365,0.427 -0.453,0.461 -0.065,0.025 -0.14,0.013 -0.221,-0.032 -0.182,-0.103 -0.399,-0.256 -0.653,-0.457 -0.227,-0.179 -0.409,-0.336 -0.545,-0.468 l 1.186,-1.491 0.351,-0.42 c 0.201,0.137 0.432,0.309 0.692,0.514 0.253,0.203 0.479,0.397 0.679,0.582 0.204,0.188 0.317,0.316 0.342,0.387 -0.052,0.246 -0.177,0.494 -0.38,0.845 l 0.288,0.229 c 0.318,-0.506 0.596,-0.908 0.834,-1.207 -0.146,-0.219 -0.352,-0.397 -0.63,-0.615 l -0.574,-0.44 -1.161,-0.906 z m -1.733,-0.207 0.07,-0.494 c -0.21,-0.367 -0.422,-0.662 -0.635,-0.885 -0.21,-0.221 -0.503,-0.453 -0.88,-0.691 -0.535,-0.342 -1.062,-0.559 -1.581,-0.653 -0.411,-0.068 -0.8,-0.062 -1.168,0.02 -0.368,0.082 -0.696,0.215 -0.984,0.4 -0.438,0.279 -0.804,0.653 -1.1,1.117 -0.507,0.795 -0.649,1.618 -0.427,2.467 0.224,0.852 0.832,1.594 1.825,2.227 0.34,0.217 0.662,0.384 0.964,0.508 0.306,0.123 0.678,0.234 1.119,0.334 l 0.241,-0.545 c 0.143,-0.311 0.288,-0.59 0.431,-0.838 l -0.294,-0.19 c -0.182,0.276 -0.337,0.49 -0.463,0.645 -0.282,0.068 -0.556,0.078 -0.824,0.029 -0.265,-0.045 -0.563,-0.172 -0.89,-0.381 -0.595,-0.379 -0.948,-0.869 -1.066,-1.472 -0.117,-0.6 0.037,-1.237 0.466,-1.909 0.259,-0.406 0.545,-0.724 0.857,-0.951 0.314,-0.226 0.634,-0.375 0.961,-0.447 0.325,-0.07 0.618,-0.088 0.878,-0.049 0.352,0.053 0.724,0.205 1.115,0.455 0.258,0.164 0.483,0.348 0.676,0.553 0.192,0.203 0.379,0.463 0.559,0.775 z m -12.827,-7.299 c 0.317,0.156 0.496,0.252 0.536,0.287 0.063,0.119 0.058,0.178 0.039,0.262 -0.029,0.111 -0.12,0.371 -0.272,0.783 -0.088,0.233 -0.212,0.531 -0.371,0.897 l -0.574,1.322 -0.538,1.191 c -0.09,0.199 -0.155,0.326 -0.196,0.381 -0.156,0.125 -0.209,0.129 -0.276,0.119 -0.068,-0.009 -0.251,-0.068 -0.551,-0.176 l -0.15,0.348 0.781,0.309 0.591,0.273 0.374,0.176 c 0.887,-0.492 1.942,-1.047 3.166,-1.662 0.882,-0.442 1.599,-0.777 2.151,-1.004 l -0.414,0.951 c -0.642,1.479 -1.037,2.34 -1.183,2.586 -0.245,0.188 -0.471,0.123 -0.839,-0.031 l -0.151,0.347 c 0.343,0.129 0.654,0.254 0.934,0.375 0.271,0.12 0.619,0.28 1.04,0.483 l 0.15,-0.348 c -0.332,-0.152 -0.52,-0.263 -0.565,-0.334 0,-0.236 0.11,-0.562 0.31,-1.06 l 0.455,-1.09 c 0.794,-1.826 1.294,-2.928 1.499,-3.303 l -0.788,-0.258 c -1.319,0.606 -3.224,1.549 -5.716,2.826 l 0.892,-2.05 c 0.186,-0.426 0.386,-0.867 0.604,-1.321 0.149,-0.314 0.251,-0.5 0.302,-0.56 0.125,-0.067 0.177,-0.059 0.247,-0.039 0.188,0.056 0.324,0.101 0.406,0.136 l 0.226,-0.292 -0.894,-0.379 c -0.266,-0.116 -0.624,-0.28 -1.072,-0.495 z m -7.626,0.822 c 0.187,-0.673 0.434,-1.205 0.742,-1.593 0.306,-0.389 0.628,-0.633 0.967,-0.735 0.339,-0.101 0.705,-0.099 1.097,0.01 0.364,0.1 0.664,0.277 0.902,0.529 0.241,0.254 0.385,0.608 0.432,1.067 0.05,0.457 -0.007,0.98 -0.17,1.57 -0.112,0.404 -0.26,0.76 -0.442,1.07 -0.179,0.311 -0.384,0.561 -0.613,0.748 -0.23,0.192 -0.475,0.319 -0.734,0.381 -0.257,0.061 -0.57,0.041 -0.939,-0.06 -0.422,-0.118 -0.753,-0.317 -0.996,-0.598 -0.239,-0.277 -0.374,-0.629 -0.401,-1.053 -0.026,-0.424 0.025,-0.869 0.155,-1.336 m -1.261,-0.625 c -0.147,0.528 -0.196,1.01 -0.145,1.448 0.052,0.437 0.189,0.834 0.41,1.189 0.221,0.357 0.49,0.645 0.805,0.863 0.405,0.276 0.872,0.487 1.399,0.633 0.526,0.147 1.023,0.205 1.49,0.176 0.349,-0.025 0.673,-0.111 0.975,-0.258 0.304,-0.142 0.55,-0.307 0.739,-0.494 0.188,-0.188 0.351,-0.404 0.489,-0.652 0.139,-0.246 0.254,-0.532 0.343,-0.852 0.15,-0.541 0.196,-1.072 0.138,-1.588 -0.043,-0.385 -0.161,-0.748 -0.355,-1.092 -0.191,-0.341 -0.437,-0.63 -0.737,-0.869 -0.414,-0.324 -0.921,-0.568 -1.521,-0.734 -0.649,-0.18 -1.24,-0.217 -1.773,-0.113 -0.53,0.107 -0.991,0.353 -1.384,0.74 -0.392,0.385 -0.684,0.92 -0.873,1.603 m -0.981,-2.486 -0.145,-0.477 c -0.346,-0.244 -0.662,-0.421 -0.95,-0.531 -0.284,-0.113 -0.647,-0.199 -1.089,-0.256 -0.63,-0.084 -1.2,-0.056 -1.709,0.078 -0.402,0.112 -0.752,0.282 -1.051,0.51 -0.299,0.231 -0.54,0.49 -0.723,0.78 -0.279,0.437 -0.454,0.929 -0.525,1.476 -0.124,0.936 0.095,1.74 0.655,2.414 0.564,0.68 1.429,1.094 2.595,1.248 0.4,0.053 0.763,0.071 1.09,0.053 0.328,-0.018 0.713,-0.074 1.154,-0.172 l -0.012,-0.594 c 0,-0.341 0.012,-0.656 0.038,-0.943 l -0.347,-0.045 c -0.049,0.326 -0.099,0.586 -0.148,0.777 -0.226,0.184 -0.471,0.307 -0.733,0.375 -0.261,0.073 -0.583,0.082 -0.969,0.032 -0.698,-0.09 -1.227,-0.385 -1.588,-0.883 -0.36,-0.494 -0.488,-1.137 -0.385,-1.926 0.063,-0.478 0.188,-0.887 0.375,-1.225 0.19,-0.337 0.416,-0.607 0.682,-0.81 0.265,-0.201 0.523,-0.34 0.775,-0.416 0.342,-0.1 0.744,-0.119 1.204,-0.059 0.302,0.039 0.584,0.112 0.846,0.215 0.261,0.104 0.539,0.26 0.835,0.467 z"
       style="fill:#646567;fill-opacity:1;fill-rule:evenodd;stroke:none"
       id="path853" /><path
       d="m 188.4009,403.2603 0.576,-8.203 c 0.231,0 0.231,0.807 0.231,0.807 l -0.423,6.359 9.917,-1.365 0.385,-4.418 c 0.076,-0.616 -0.462,-1.307 -0.462,-1.307 0.384,0 0.577,-1.037 0.577,-1.037 l 0.345,-4.552 -9.742,-2.69 -0.443,6.147 c 0,0.652 -0.27,0.865 -0.27,0.865 l 0.483,-7.549 8.205,2.342 0.268,-0.922 -9.339,-2.555 -1.231,18.002 z m 1.366,-2.189 0.384,-5.131 c 0.077,-0.459 -0.154,-0.922 -0.154,-0.922 l 7.513,0.576 c 0.637,0 0.616,0.807 0.616,0.807 l -0.308,3.65 z m 0.341,-6.957 c 0.123,-0.229 0.192,-0.551 0.209,-0.967 l 0.372,-5.101 7.821,2.113 -0.307,3.861 c 0,0.789 -0.923,0.576 -0.923,0.576 z"
       style="fill:#646567;fill-opacity:1;fill-rule:evenodd;stroke:none"
       id="path857" /><path
       d="m 176.0337,428.4106 c 0.77,-1.074 0.111,-2.371 -1.321,-2.281 l -0.151,-0.258 c 0.778,-1.1 -0.039,-2.33 -1.29,-2.236 l -0.126,-0.217 c 0.923,-1.362 -0.128,-2.432 -1.327,-2.293 -0.337,-0.797 -0.812,-1.029 -1.43,-0.694 -0.443,0.329 -0.563,0.684 -0.361,1.069 l 1.272,2.195 c -0.857,1.342 0.155,2.32 1.285,2.242 l 0.133,0.211 c -1.007,1.502 0.241,2.485 1.333,2.315 l 0.132,0.224 c -0.89,1.379 0.184,2.422 1.308,2.266 l 0.566,0.977 c 0.296,0.369 0.663,0.445 1.099,0.228 0.429,-0.281 0.574,-0.631 0.435,-1.047 l -0.484,-0.82 c 0.224,-0.139 0.447,-0.309 0.447,-0.309 0.64,-0.49 0.847,-0.957 0.622,-1.398 0,0 -0.109,-0.145 -0.079,-0.307 0.03,-0.164 -0.048,-0.236 -0.048,-0.236 0.114,-0.211 0.138,-0.639 0.138,-0.639 l -0.241,-0.012 c 0.042,0.096 -0.114,0.584 -0.114,0.584 -0.326,0.038 -0.592,0.52 -0.628,0.581 -0.036,0.058 -0.211,0.246 -0.211,0.246 l -0.078,0.248 c 0,0.222 -0.241,0.482 -0.241,0.482 z m -0.92,0.861 c 0.116,-0.211 0.31,-0.269 0.55,-0.451 l 1.425,2.475 c 0.168,0.332 -0.454,0.619 -0.599,0.347 z m -0.56,-0.972 -0.897,-1.553 c 0.039,-0.17 0.336,-0.266 0.537,-0.451 l 0.9,1.552 c -0.113,0.206 -0.352,0.305 -0.54,0.452 m -1.458,-2.535 -0.865,-1.481 c 0.086,-0.23 0.283,-0.268 0.541,-0.475 l 0.845,1.475 c -0.063,0.236 -0.309,0.33 -0.521,0.481 m -1.435,-2.469 -1.14,-1.994 c -0.226,-0.258 0.355,-0.705 0.575,-0.377 l 1.106,1.91 c -0.038,0.16 -0.287,0.254 -0.541,0.461"
       style="fill:#646567;fill-opacity:1;fill-rule:evenodd;stroke:none"
       id="path861" /><path
       d="m 123.7891,409.5845 -7.601,4.758 -0.624,-0.028 -1.323,-2.146 0.113,-0.342 6.408,-1.959 c 0.596,0 0.728,-1.502 0.256,-2.471 -0.808,-1.074 -1.65,-1.476 -2.528,-1.208 l -4.534,4.986 -0.312,-0.027 -0.142,-0.2 c -0.483,-0.369 -0.88,0.17 -0.397,0.539 -0.37,0.34 0.028,1.164 0.596,0.965 l 1.335,2.17 c -0.15,0.248 -0.219,0.424 -0.209,0.526 l -0.984,0.615 c -0.56,0.611 0.123,1.187 0.623,0.941 l 0.958,-0.601 c 0.146,0.058 0.329,0.072 0.551,0.045 l 1.341,2.125 c -0.297,0.646 0.198,1.109 0.652,1.05 0.196,0.551 0.848,0.381 0.665,-0.133 l -0.127,-0.189 c 0.065,-0.119 0.097,-0.223 0.097,-0.312 l 6.55,-2.016 c 0.291,0.041 0.691,-1.369 0.199,-2.358 -0.655,-1.201 -2.399,-1.738 -2.545,-1.265 l -4.63,4.939 c -0.135,-0.037 -0.263,-0.074 -0.335,-0.045 l -1.326,-2.148 c 0.125,-0.125 0.196,-0.297 0.212,-0.516 l 7.629,-4.757 c 0.512,-0.456 0.057,-1.194 -0.568,-0.938 m -8.733,1.043 3.68,-3.947 0.738,1.205 z m 5.722,-1.574 -1.55,-2.459 c 1.156,0.269 1.796,1.463 1.55,2.459 m -1.446,8.418 3.671,-3.959 0.738,1.187 z m 0.241,0.418 4.439,-2.782 0.722,1.223 z m 5.485,-1.989 -1.537,-2.472 c 1.192,0.324 1.736,1.344 1.537,2.472 m -9.732,-4.88 4.406,-2.743 0.726,1.219 z"
       style="fill:#646567;fill-opacity:1;fill-rule:evenodd;stroke:none"
       id="path865" /><path
       d="m 107.8677,394.7197 c 0,0.361 0.294,0.654 0.655,0.654 0.363,0 0.656,-0.293 0.656,-0.654 0,-0.361 -0.293,-0.656 -0.656,-0.656 -0.361,0 -0.655,0.295 -0.655,0.656 m 0.336,0 c 0,-0.176 0.143,-0.32 0.319,-0.32 0.177,0 0.32,0.144 0.32,0.32 0,0.176 -0.143,0.318 -0.32,0.318 -0.176,0 -0.319,-0.142 -0.319,-0.318 m 11.461,2.96 -0.896,-0.341 0.257,-0.174 -0.354,-0.526 c 0.148,-0.14 0.285,-0.296 0.407,-0.466 l 0.602,0.293 0.495,-1.012 -0.604,-0.295 c 0.055,-0.187 0.092,-0.378 0.112,-0.568 l 0.673,-0.047 -0.078,-1.125 -0.668,0.047 c -0.046,-0.191 -0.108,-0.377 -0.187,-0.557 l 0.578,-0.39 -0.63,-0.934 -0.569,0.383 c -0.138,-0.146 -0.291,-0.281 -0.457,-0.402 l 0.292,-0.598 -0.346,-0.168 0.743,-0.406 -0.183,-0.418 -2.162,0.709 -0.028,-0.399 -1.125,0.079 0.046,0.66 c -0.191,0.049 -0.377,0.113 -0.557,0.193 l -0.37,-0.547 -0.935,0.629 0.199,0.295 -5.528,1.814 c -2.098,0.315 -1.312,3.144 0.447,2.672 l 5.535,1.043 -0.194,0.398 1.013,0.494 0.289,-0.591 c 0.188,0.052 0.378,0.089 0.567,0.109 l 0.046,0.646 1.125,-0.078 -0.032,-0.449 2.372,0.445 z m -6.442,-2.46 -0.379,-0.145 0.332,-0.023 z m -1.791,-0.684 0.973,-0.529 0.729,-0.398 -0.046,0.32 -0.619,0.043 0.001,0.961 z m -0.497,0.262 2.326,0.906 3.73,1.453 -3.855,-0.742 -3.643,-0.699 0.131,-0.211 z m 2.553,-2.578 0.362,-0.119 2.696,-0.893 -6.633,3.617 c 0.001,-0.523 -0.217,-0.925 -0.655,-1.207 z m -3.997,2.514 c 0,0.54 -0.44,0.982 -0.982,0.982 -0.543,0 -0.984,-0.442 -0.984,-0.982 0,-0.543 0.441,-0.985 0.984,-0.985 0.542,0 0.982,0.442 0.982,0.985 m 7.522,-1.774 c 0.705,0.346 0.998,1.196 0.653,1.901 -0.344,0.706 -1.195,0.999 -1.902,0.653 -0.705,-0.343 -0.999,-1.194 -0.653,-1.899 0.344,-0.706 1.195,-0.999 1.902,-0.655"
       style="fill:#646567;fill-opacity:1;fill-rule:evenodd;stroke:none"
       id="path869" /><path
       d="m 148.0508,346.3232 c -0.156,-0.404 -1.564,0.133 -1.254,0.791 1.227,2.609 2.935,3.881 4.896,4.58 -1.308,0.203 -2.762,0.434 -4.379,0.807 -0.428,0.097 -0.197,0.984 0.296,0.853 2.208,-0.588 4.483,-0.685 6.598,-1.041 2.114,0.356 4.385,0.451 6.592,1.041 0.493,0.131 0.723,-0.756 0.296,-0.855 -1.616,-0.373 -3.069,-0.602 -4.375,-0.807 1.959,-0.697 3.664,-1.969 4.892,-4.576 0.31,-0.658 -1.099,-1.197 -1.254,-0.791 -1.305,3.398 -3.266,4.357 -6.152,4.941 -2.888,-0.584 -4.85,-1.543 -6.156,-4.943"
       style="fill:#646567;fill-opacity:1;fill-rule:evenodd;stroke:none"
       id="path873" /><path
       d="m 128.8911,426.2778 c -0.453,1.248 0.303,2.861 1.826,3.832 l -0.391,0.676 -0.647,-0.373 -0.231,0.4 0.646,0.373 -0.368,0.637 0.401,0.23 0.368,-0.634 0.63,0.363 0.231,-0.4 -0.63,-0.364 0.392,-0.677 c 1.598,0.826 3.367,0.669 4.22,-0.342 z m 3.959,-6.914 c 0,0 -0.186,0.322 0.131,0.506 1.69,0.974 1.958,2.217 1.591,2.988 -0.755,-0.23 -1.524,-0.021 -1.859,0.559 -0.288,0.498 -0.176,1.138 0.229,1.65 -1.442,-0.543 -2.923,-0.322 -3.682,0.576 l 6.444,3.719 c 0.398,-1.104 -0.148,-2.492 -1.335,-3.469 0.648,0.096 1.26,-0.129 1.549,-0.629 0.332,-0.574 0.134,-1.336 -0.431,-1.873 0.494,-0.677 1.715,-1.086 3.357,-0.138 0.322,0.187 0.508,-0.135 0.508,-0.135 z"
       style="fill:#646567;fill-opacity:1;fill-rule:evenodd;stroke:none"
       id="path877" /><path
       d="m 162.3394,351.1338 c -0.287,0.586 -0.479,1.193 -0.584,1.807 3.004,0.756 6.229,-0.664 7.641,-3.559 0.286,-0.586 0.479,-1.193 0.584,-1.807 -3.005,-0.755 -6.229,0.664 -7.641,3.559 m 5.167,9.025 c -0.118,-3.408 -2.626,-6.168 -5.856,-6.73 -0.163,0.639 -0.239,1.309 -0.214,2 0.119,3.406 2.626,6.166 5.857,6.728 0.162,-0.636 0.237,-1.308 0.213,-1.998 m 20.244,7.194 c -0.502,0.222 -0.954,0.51 -1.352,0.847 1.525,2.112 4.369,2.94 6.843,1.838 0.501,-0.224 0.953,-0.511 1.352,-0.849 -1.526,-2.11 -4.37,-2.938 -6.843,-1.836 m -4.482,-5.199 c -0.515,0.287 -0.972,0.636 -1.366,1.035 1.829,2.113 4.948,2.732 7.491,1.324 0.515,-0.285 0.971,-0.635 1.366,-1.033 -1.829,-2.116 -4.948,-2.735 -7.491,-1.326 m -6.079,-4.842 c -0.454,0.424 -0.831,0.896 -1.133,1.404 2.407,1.693 5.751,1.533 7.989,-0.553 0.453,-0.424 0.831,-0.896 1.132,-1.404 -2.406,-1.693 -5.75,-1.533 -7.988,0.553 m -7.202,-3.793 c -0.393,0.521 -0.698,1.08 -0.918,1.662 2.805,1.314 6.242,0.537 8.18,-2.035 0.393,-0.522 0.698,-1.08 0.918,-1.662 -2.805,-1.315 -6.242,-0.538 -8.18,2.035 m 16.313,22.183 c 1.662,-2.205 1.491,-5.22 -0.255,-7.22 -0.428,0.318 -0.817,0.701 -1.154,1.148 -1.662,2.205 -1.491,5.221 0.256,7.221 0.426,-0.319 0.817,-0.701 1.153,-1.149 m -3.351,-4.281 c 1.484,-2.676 0.831,-5.957 -1.394,-7.883 -0.42,0.414 -0.788,0.897 -1.089,1.438 -1.483,2.676 -0.831,5.959 1.394,7.885 0.42,-0.416 0.789,-0.897 1.089,-1.44 m -4.252,-4.389 c 1.05,-3.046 -0.227,-6.33 -2.886,-7.919 -0.359,0.507 -0.653,1.074 -0.866,1.691 -1.048,3.045 0.228,6.328 2.888,7.918 0.359,-0.508 0.652,-1.074 0.864,-1.69 m -5.216,-3.857 c 0.472,-3.357 -1.506,-6.494 -4.574,-7.602 -0.269,0.596 -0.459,1.241 -0.554,1.92 -0.472,3.358 1.507,6.495 4.574,7.602 0.268,-0.596 0.458,-1.24 0.554,-1.92"
       style="fill:#646567;fill-opacity:1;fill-rule:evenodd;stroke:none"
       id="path881" /><path
       d="m 146.0708,351.1338 c -1.413,-2.895 -4.637,-4.313 -7.641,-3.557 0.104,0.612 0.297,1.221 0.583,1.807 1.412,2.895 4.637,4.314 7.641,3.557 -0.104,-0.612 -0.297,-1.219 -0.583,-1.807 m -5.168,9.027 c -0.024,0.69 0.051,1.36 0.213,1.998 3.231,-0.562 5.738,-3.324 5.857,-6.73 0.025,-0.691 -0.051,-1.361 -0.214,-1.998 -3.23,0.562 -5.737,3.322 -5.856,6.73 m -20.244,7.194 c -2.473,-1.102 -5.317,-0.274 -6.842,1.836 0.398,0.338 0.85,0.625 1.352,0.847 2.473,1.102 5.317,0.274 6.842,-1.836 -0.398,-0.338 -0.851,-0.625 -1.352,-0.847 m 4.481,-5.2 c -2.542,-1.41 -5.661,-0.789 -7.49,1.325 0.394,0.398 0.851,0.748 1.367,1.033 2.542,1.41 5.661,0.789 7.491,-1.324 -0.395,-0.399 -0.852,-0.748 -1.368,-1.034 m 6.08,-4.841 c -2.238,-2.086 -5.581,-2.248 -7.988,-0.555 0.301,0.508 0.679,0.98 1.132,1.404 2.238,2.086 5.582,2.248 7.989,0.555 -0.302,-0.508 -0.679,-0.982 -1.133,-1.404 m 7.203,-3.793 c -1.939,-2.575 -5.375,-3.352 -8.181,-2.035 0.22,0.58 0.525,1.14 0.918,1.662 1.938,2.572 5.375,3.349 8.18,2.035 -0.22,-0.582 -0.525,-1.143 -0.917,-1.662 m -16.314,22.181 c 0.337,0.448 0.727,0.832 1.153,1.151 1.747,-2.002 1.918,-5.018 0.256,-7.223 -0.337,-0.445 -0.726,-0.83 -1.153,-1.148 -1.747,2 -1.918,5.015 -0.256,7.22 m 3.351,-4.279 c 0.3,0.543 0.669,1.024 1.089,1.438 2.225,-1.924 2.877,-5.207 1.394,-7.883 -0.301,-0.543 -0.669,-1.024 -1.089,-1.44 -2.225,1.926 -2.878,5.209 -1.394,7.885 m 4.252,-4.391 c 0.212,0.618 0.505,1.184 0.865,1.69 2.659,-1.588 3.935,-4.871 2.887,-7.918 -0.213,-0.617 -0.507,-1.182 -0.866,-1.69 -2.659,1.59 -3.935,4.874 -2.886,7.918 m 5.215,-3.855 c 0.096,0.68 0.287,1.324 0.555,1.92 3.068,-1.109 5.046,-4.246 4.574,-7.604 -0.095,-0.679 -0.285,-1.322 -0.554,-1.92 -3.068,1.11 -5.046,4.247 -4.575,7.604"
       style="fill:#646567;fill-opacity:1;fill-rule:evenodd;stroke:none"
       id="path885" /><path
       d="m 150.9165,334.8564 0.956,-0.055 0.925,-0.027 -0.86,2.357 z m -2.089,-2.34 0.016,0.373 c 0.243,0.008 0.387,0.016 0.433,0.026 0.158,0.086 0.193,0.128 0.229,0.187 0.038,0.063 0.151,0.287 0.339,0.674 l 0.497,1.08 1.297,2.838 0.439,1.002 0.638,-0.029 1.801,-4.774 0.252,-0.627 0.161,-0.42 c 0.203,-0.193 0.291,-0.207 0.431,-0.222 l 0.18,-0.403 -1.246,0.082 -1.576,0.041 0.016,0.373 c 0.363,-0.002 0.567,0.01 0.613,0.032 0.081,0.201 0.051,0.326 -0.01,0.5 l -0.343,1.003 -2.307,0.102 -0.22,-0.529 c -0.168,-0.407 -0.254,-0.66 -0.259,-0.762 0.136,-0.201 0.349,-0.238 0.704,-0.266 l -0.017,-0.371 -1.035,0.073 z m -10.139,1.785 0.076,0.373 c 0.337,-0.045 0.538,-0.06 0.604,-0.048 0.238,0.363 0.329,0.724 0.459,1.285 0.065,0.271 0.164,0.74 0.299,1.406 l 0.309,1.582 c 0.085,0.463 0.121,0.74 0.11,0.836 -0.356,0.256 -0.526,0.31 -0.681,0.35 l 0.076,0.373 1.245,-0.282 c 0.302,-0.06 0.607,-0.115 0.917,-0.158 l 0.21,-0.951 0.173,-0.723 0.813,-3.172 c 0.417,0.516 0.732,0.92 0.947,1.209 l 0.829,1.1 0.845,1.135 c 0.105,0.142 0.228,0.326 0.368,0.549 l 0.733,-0.182 1.319,-0.236 -0.076,-0.375 c -0.358,0.076 -0.553,0.08 -0.647,0.021 -0.094,-0.055 -0.161,-0.183 -0.203,-0.389 l -0.117,-0.554 -0.274,-1.233 -0.314,-1.545 -0.13,-0.66 c -0.052,-0.377 -0.078,-0.611 -0.078,-0.699 0.159,-0.209 0.341,-0.264 0.662,-0.35 l -0.076,-0.375 -1.399,0.313 -1.378,0.254 0.076,0.373 c 0.366,-0.063 0.578,-0.084 0.634,-0.065 0.198,0.293 0.284,0.655 0.409,1.274 l 0.652,3.205 -1.441,-1.857 -0.697,-0.926 -0.785,-1.063 -0.492,-0.683 -0.299,0.06 -0.252,1.106 -0.441,1.798 -0.677,2.6 -0.439,-2.16 -0.249,-1.293 c -0.089,-0.498 -0.135,-0.781 -0.137,-0.852 0.045,-0.187 0.084,-0.22 0.141,-0.254 0.06,-0.033 0.237,-0.089 0.53,-0.167 l -0.076,-0.374 c -0.326,0.084 -0.66,0.163 -1.003,0.231 -0.449,0.092 -0.807,0.156 -1.075,0.193 m 0.559,6.526 -0.125,-0.375 c -0.29,0.088 -0.464,0.133 -0.523,0.138 -0.236,-0.103 -0.281,-0.191 -0.335,-0.324 l -0.153,-0.412 -0.394,-1.123 -0.575,-1.717 -0.247,-0.785 c -0.098,-0.291 -0.148,-0.486 -0.149,-0.584 0.191,-0.238 0.357,-0.303 0.633,-0.402 l -0.125,-0.375 c -0.457,0.174 -0.949,0.347 -1.474,0.523 -0.458,0.153 -0.868,0.281 -1.231,0.383 l 0.125,0.375 0.521,-0.141 0.369,0.45 c 0.136,0.334 0.253,0.644 0.35,0.933 l 0.596,1.781 0.356,1.094 c 0.106,0.365 0.165,0.596 0.175,0.694 -0.144,0.21 -0.318,0.283 -0.624,0.398 l 0.125,0.375 c 0.353,-0.137 0.76,-0.283 1.223,-0.438 0.519,-0.173 1.013,-0.33 1.482,-0.468 m -4.728,-0.114 -0.349,0.145 c 0.128,0.322 0.207,0.555 0.24,0.697 -0.035,0.156 -0.14,0.326 -0.314,0.51 -0.171,0.182 -0.388,0.326 -0.651,0.436 -0.377,0.154 -0.708,0.181 -0.994,0.076 -0.283,-0.104 -0.477,-0.283 -0.583,-0.537 -0.072,-0.184 -0.103,-0.344 -0.092,-0.481 0.011,-0.139 0.057,-0.264 0.137,-0.375 0.08,-0.109 0.214,-0.236 0.402,-0.379 l 0.617,-0.402 0.517,-0.336 c 0.2,-0.15 0.352,-0.297 0.456,-0.438 0.105,-0.136 0.176,-0.275 0.211,-0.418 0.039,-0.138 0.051,-0.3 0.036,-0.486 -0.013,-0.181 -0.062,-0.373 -0.146,-0.576 -0.146,-0.354 -0.349,-0.635 -0.606,-0.842 -0.195,-0.156 -0.425,-0.277 -0.691,-0.365 -0.266,-0.084 -0.519,-0.125 -0.761,-0.123 -0.386,0.006 -0.812,0.103 -1.277,0.297 -0.341,0.14 -0.631,0.299 -0.87,0.472 -0.239,0.174 -0.486,0.405 -0.739,0.692 0.215,0.279 0.458,0.74 0.728,1.385 l 0.349,-0.145 c -0.088,-0.197 -0.175,-0.451 -0.262,-0.762 0.034,-0.216 0.152,-0.441 0.352,-0.675 0.201,-0.237 0.452,-0.416 0.754,-0.541 0.263,-0.11 0.515,-0.163 0.758,-0.155 0.246,0.008 0.448,0.074 0.608,0.199 0.161,0.125 0.285,0.291 0.371,0.499 0.072,0.173 0.101,0.337 0.086,0.488 -0.012,0.152 -0.072,0.293 -0.179,0.426 -0.107,0.13 -0.319,0.31 -0.634,0.535 -0.458,0.312 -0.755,0.525 -0.893,0.636 -0.208,0.172 -0.358,0.354 -0.449,0.551 -0.087,0.196 -0.128,0.403 -0.12,0.623 0.008,0.225 0.058,0.448 0.15,0.668 0.128,0.311 0.311,0.569 0.548,0.774 0.239,0.209 0.495,0.341 0.768,0.396 0.272,0.057 0.555,0.059 0.849,0.008 0.295,-0.047 0.583,-0.129 0.865,-0.246 0.294,-0.121 0.566,-0.266 0.818,-0.432 0.255,-0.168 0.463,-0.342 0.623,-0.525 -0.121,-0.277 -0.223,-0.443 -0.314,-0.61 -0.088,-0.164 -0.194,-0.386 -0.319,-0.664 m -3.999,3.565 -0.189,-0.346 c -0.27,0.135 -0.434,0.211 -0.491,0.225 -0.25,-0.059 -0.31,-0.139 -0.387,-0.26 l -0.222,-0.381 -0.583,-1.037 -0.863,-1.59 -0.381,-0.728 c -0.147,-0.272 -0.23,-0.455 -0.248,-0.551 0.021,-0.149 0.052,-0.186 0.097,-0.227 0.05,-0.041 0.202,-0.132 0.457,-0.279 l -0.189,-0.348 c -0.419,0.25 -0.874,0.506 -1.361,0.772 -0.423,0.23 -0.805,0.428 -1.145,0.592 l 0.189,0.345 c 0.279,-0.136 0.441,-0.213 0.488,-0.228 l 0.441,0.379 c 0.193,0.304 0.361,0.59 0.508,0.859 l 0.895,1.651 0.541,1.013 c 0.168,0.342 0.266,0.559 0.293,0.653 -0.105,0.234 -0.265,0.335 -0.546,0.502 l 0.189,0.347 c 0.323,-0.197 0.699,-0.41 1.128,-0.644 0.482,-0.262 0.941,-0.5 1.379,-0.719 m -10.157,-1.27 0.198,0.311 c 0.31,-0.184 0.501,-0.277 0.577,-0.281 0.077,-0.008 0.148,0.017 0.214,0.076 0.096,0.09 0.319,0.408 0.666,0.953 l 1.446,2.269 c 0.393,0.62 0.61,0.967 0.649,1.045 l -0.542,0.346 c -0.272,0.174 -0.518,0.318 -0.736,0.432 -0.439,-0.198 -0.584,-0.383 -0.729,-0.6 l -0.315,0.199 0.539,0.889 0.191,0.383 c 0.168,-0.072 0.29,-0.162 0.42,-0.252 0.213,-0.147 0.628,-0.416 1.247,-0.811 l 1.531,-0.976 c 0.636,-0.405 1.064,-0.672 1.284,-0.801 l 0.369,-0.199 c -0.107,-0.201 -0.207,-0.328 -0.286,-0.44 l -0.544,-0.82 -0.314,0.199 c 0.12,0.201 0.224,0.401 0.31,0.596 -0.244,0.451 -0.486,0.619 -0.777,0.805 l -0.541,0.345 c -0.064,-0.084 -0.288,-0.427 -0.673,-1.031 l -1.445,-2.268 c -0.348,-0.544 -0.543,-0.882 -0.586,-1.011 -0.024,-0.076 -0.018,-0.151 0.019,-0.221 0.039,-0.066 0.207,-0.201 0.504,-0.406 l -0.198,-0.311 c -0.476,0.336 -0.882,0.612 -1.217,0.824 -0.359,0.229 -0.779,0.481 -1.261,0.756 m -7.521,6.631 c 0.276,-0.22 0.439,-0.342 0.487,-0.365 0.135,-0.006 0.186,0.023 0.252,0.076 0.09,0.074 0.287,0.266 0.595,0.578 0.174,0.178 0.392,0.416 0.657,0.713 l 0.955,1.08 0.853,0.99 c 0.142,0.166 0.229,0.28 0.261,0.338 0.047,0.196 0.029,0.245 -0.008,0.303 -0.038,0.057 -0.168,0.197 -0.392,0.424 l 0.25,0.283 0.611,-0.578 0.497,-0.422 0.319,-0.264 c -0.073,-1.011 -0.128,-2.201 -0.167,-3.57 -0.029,-0.986 -0.029,-1.777 -0.001,-2.375 l 0.687,0.777 c 1.068,1.208 1.683,1.928 1.844,2.165 0.064,0.091 0.092,0.164 0.082,0.214 -0.016,0.088 -0.17,0.264 -0.465,0.534 l 0.25,0.281 c 0.262,-0.254 0.507,-0.485 0.736,-0.688 0.222,-0.195 0.514,-0.441 0.875,-0.738 l -0.25,-0.283 c -0.279,0.236 -0.459,0.359 -0.541,0.373 -0.214,-0.102 -0.464,-0.338 -0.83,-0.729 l -0.796,-0.873 c -1.32,-1.49 -2.106,-2.408 -2.359,-2.754 l -0.568,0.606 c -0.008,1.451 0.04,3.576 0.144,6.373 l -1.481,-1.674 c -0.308,-0.348 -0.622,-0.715 -0.942,-1.103 -0.221,-0.27 -0.347,-0.44 -0.379,-0.51 -0.007,-0.143 0.021,-0.188 0.069,-0.242 0.13,-0.147 0.228,-0.25 0.296,-0.309 l -0.171,-0.33 -0.721,0.65 c -0.217,0.194 -0.518,0.448 -0.902,0.764 z m -2.649,6.055 0.612,-0.736 0.611,-0.696 1.138,2.237 z m -3.136,-0.068 0.283,0.242 c 0.171,-0.172 0.276,-0.272 0.314,-0.299 0.171,-0.057 0.226,-0.053 0.293,-0.039 0.072,0.014 0.313,0.084 0.724,0.211 l 1.128,0.373 2.961,0.986 1.032,0.361 0.414,-0.486 -2.261,-4.57 -0.287,-0.611 -0.197,-0.407 c -0.034,-0.176 -0.028,-0.211 -0.016,-0.244 0.014,-0.035 0.063,-0.109 0.148,-0.221 l -0.172,-0.408 -0.791,0.969 -1.044,1.182 0.283,0.242 c 0.247,-0.268 0.394,-0.408 0.442,-0.428 0.202,0.078 0.273,0.186 0.358,0.348 l 0.5,0.935 -1.499,1.756 -0.538,-0.199 c -0.412,-0.154 -0.656,-0.264 -0.734,-0.33 -0.054,-0.237 0.065,-0.416 0.287,-0.695 l -0.284,-0.243 -0.653,0.807 z m 2.664,4.257 -0.208,0.315 c 0.286,0.197 0.482,0.346 0.589,0.445 0.059,0.149 0.067,0.348 0.024,0.598 -0.04,0.246 -0.139,0.486 -0.296,0.724 -0.225,0.34 -0.485,0.547 -0.782,0.62 -0.292,0.072 -0.553,0.033 -0.782,-0.12 -0.163,-0.111 -0.279,-0.226 -0.347,-0.347 -0.067,-0.119 -0.099,-0.248 -0.094,-0.385 0.004,-0.139 0.044,-0.318 0.12,-0.541 l 0.286,-0.678 0.242,-0.566 c 0.082,-0.238 0.126,-0.444 0.133,-0.619 0.011,-0.172 -0.008,-0.327 -0.058,-0.463 -0.045,-0.139 -0.126,-0.28 -0.242,-0.424 -0.113,-0.145 -0.261,-0.275 -0.444,-0.397 -0.319,-0.21 -0.644,-0.33 -0.973,-0.359 -0.249,-0.019 -0.508,0.008 -0.778,0.084 -0.267,0.078 -0.5,0.188 -0.699,0.324 -0.318,0.221 -0.615,0.541 -0.893,0.961 -0.204,0.307 -0.356,0.6 -0.457,0.877 -0.102,0.278 -0.177,0.608 -0.228,0.987 0.337,0.111 0.796,0.357 1.38,0.74 l 0.208,-0.315 c -0.184,-0.115 -0.398,-0.275 -0.644,-0.486 -0.091,-0.197 -0.12,-0.449 -0.085,-0.756 0.035,-0.308 0.142,-0.598 0.322,-0.869 0.157,-0.238 0.338,-0.422 0.543,-0.553 0.209,-0.131 0.414,-0.189 0.616,-0.174 0.203,0.012 0.398,0.08 0.586,0.205 0.157,0.104 0.272,0.223 0.344,0.358 0.075,0.131 0.104,0.283 0.089,0.451 -0.015,0.17 -0.09,0.436 -0.226,0.799 -0.204,0.516 -0.333,0.857 -0.384,1.027 -0.077,0.258 -0.099,0.494 -0.064,0.707 0.036,0.211 0.119,0.407 0.249,0.584 0.131,0.182 0.296,0.338 0.497,0.471 0.279,0.184 0.575,0.295 0.887,0.334 0.316,0.039 0.602,0.006 0.859,-0.102 0.257,-0.105 0.493,-0.261 0.708,-0.466 0.218,-0.205 0.412,-0.436 0.58,-0.69 0.175,-0.265 0.32,-0.537 0.437,-0.814 0.118,-0.282 0.193,-0.543 0.223,-0.785 -0.255,-0.163 -0.433,-0.243 -0.602,-0.329 -0.164,-0.087 -0.377,-0.211 -0.636,-0.373 m -7.896,9.59 0.4,-0.869 0.41,-0.83 1.678,1.865 z m -3.049,0.748 0.337,0.16 c 0.121,-0.211 0.197,-0.334 0.227,-0.369 0.149,-0.099 0.204,-0.111 0.273,-0.115 0.072,-0.004 0.323,0 0.753,0.018 l 1.187,0.066 3.115,0.186 1.091,0.082 0.275,-0.577 -3.368,-3.828 -0.436,-0.517 -0.295,-0.34 c -0.079,-0.162 -0.082,-0.195 -0.079,-0.231 0.005,-0.039 0.034,-0.123 0.086,-0.254 l -0.271,-0.347 -0.514,1.139 -0.703,1.412 0.336,0.16 c 0.17,-0.321 0.274,-0.496 0.316,-0.528 0.216,0.024 0.312,0.108 0.436,0.245 l 0.726,0.773 -0.994,2.084 -0.572,-0.053 c -0.437,-0.043 -0.702,-0.086 -0.794,-0.131 -0.114,-0.212 -0.046,-0.418 0.097,-0.744 l -0.337,-0.16 -0.422,0.947 z m -1.966,6.078 0.219,0.065 c 0.054,-0.065 0.141,-0.154 0.261,-0.266 0.25,-0.09 0.51,-0.027 0.953,0.09 0.445,0.119 0.977,0.272 1.594,0.453 l 1.677,0.506 c 0.536,0.172 0.839,0.281 0.909,0.33 0.082,0.166 0.046,0.395 -0.05,0.772 l 0.378,0.113 c 0.091,-0.371 0.206,-0.789 0.345,-1.258 0.154,-0.521 0.31,-1.016 0.466,-1.478 l -0.379,-0.112 c -0.111,0.321 -0.195,0.51 -0.254,0.571 -0.148,0.046 -0.329,0.009 -0.649,-0.071 -0.319,-0.08 -0.72,-0.193 -1.202,-0.336 l -1.244,-0.373 -1.222,-0.365 -0.729,-0.227 0.214,-0.816 c 0.13,-0.437 0.268,-0.811 0.416,-1.119 0.145,-0.211 0.206,-0.219 0.299,-0.221 0.236,0.008 0.502,0.026 0.799,0.055 l 0.106,-0.358 -1.048,-0.179 -0.502,-0.106 c -0.048,0.076 -0.088,0.155 -0.121,0.235 -0.067,0.172 -0.154,0.441 -0.263,0.808 l -0.278,1.02 -0.277,0.994 c -0.083,0.281 -0.222,0.707 -0.418,1.273"
       style="fill:#646567;fill-opacity:1;fill-rule:evenodd;stroke:none"
       id="path889" /><path
       d="m 207.0146,394.0068 0.243,-0.002 c 0.082,-0.18 0.167,-0.328 0.256,-0.443 0.126,-0.018 0.329,-0.035 0.611,-0.051 0.515,-0.027 0.889,-0.043 1.122,-0.045 l 2.021,-0.02 0.876,0.006 c 0.338,0.006 0.545,0.026 0.621,0.057 0.104,0.148 0.133,0.363 0.154,0.713 l 0.382,-0.004 -0.032,-1.041 -0.009,-0.594 0.002,-1.369 0.014,-0.912 -0.023,-0.656 -0.734,-0.088 -0.646,0.051 0.004,0.349 c 0.353,0.004 0.57,0.016 0.651,0.035 0.117,0.092 0.143,0.211 0.165,0.412 0.035,0.297 0.054,0.586 0.057,0.872 0.002,0.267 -0.006,0.539 -0.024,0.818 -0.338,0.045 -0.768,0.07 -1.289,0.074 l -0.921,0.008 c -0.016,-0.203 -0.026,-0.416 -0.028,-0.637 l 0.012,-0.746 c 0.002,-0.162 0.012,-0.256 0.029,-0.283 0.207,-0.106 0.398,-0.129 0.664,-0.137 l -0.003,-0.363 -0.988,0.027 -0.984,-0.01 0.003,0.387 c 0.347,-0.006 0.561,0.014 0.643,0.061 0.149,0.398 0.167,0.664 0.17,0.988 0.003,0.289 -0.004,0.529 -0.02,0.719 l -1.905,0.017 -0.548,-0.007 c -0.02,-0.245 -0.032,-0.532 -0.034,-0.864 -0.004,-0.322 0.005,-0.621 0.024,-0.894 0.018,-0.276 0.047,-0.446 0.085,-0.508 0.224,-0.115 0.496,-0.174 0.896,-0.238 l -0.003,-0.368 c -0.593,0.071 -1.08,0.108 -1.464,0.112 -0.076,0.252 -0.085,0.523 -0.082,0.877 l 0.02,0.722 0.026,1.475 z m -0.194,6.306 c 0,-0.281 0.019,-0.549 0.056,-0.799 0.059,-0.394 0.153,-0.738 0.282,-1.031 0.096,-0.215 0.215,-0.398 0.359,-0.551 0.144,-0.15 0.343,-0.287 0.597,-0.406 0.254,-0.123 0.548,-0.203 0.88,-0.24 0.333,-0.039 0.685,-0.031 1.055,0.025 0.338,0.049 0.656,0.141 0.958,0.274 0.303,0.132 0.559,0.314 0.767,0.547 0.208,0.23 0.343,0.503 0.405,0.818 0.062,0.314 0.046,0.775 -0.044,1.383 -0.034,0.228 -0.091,0.476 -0.17,0.748 -0.426,-0.033 -1.22,-0.137 -2.384,-0.311 l -1.022,-0.152 c -0.882,-0.131 -1.462,-0.233 -1.739,-0.305 m -0.807,1.697 0.212,0.032 c 0.169,-0.217 0.25,-0.311 0.332,-0.397 0.402,0.028 1.048,0.108 1.94,0.24 l 0.728,0.108 1.716,0.279 c 0.416,0.07 0.68,0.129 0.791,0.176 l 0.09,0.736 0.359,0.055 0.215,-1.617 0.183,-1.069 0.149,-0.908 c 0.078,-0.525 0.11,-0.949 0.091,-1.273 -0.014,-0.326 -0.076,-0.615 -0.183,-0.871 -0.104,-0.256 -0.241,-0.477 -0.41,-0.666 -0.167,-0.192 -0.356,-0.344 -0.566,-0.461 -0.352,-0.196 -0.75,-0.325 -1.194,-0.391 -0.566,-0.086 -1.087,-0.057 -1.562,0.084 -0.475,0.143 -0.89,0.373 -1.243,0.691 -0.354,0.319 -0.628,0.678 -0.825,1.082 -0.194,0.405 -0.335,0.905 -0.425,1.504 l -0.17,1.325 z m -0.053,8.778 0.306,-0.906 0.323,-0.868 1.863,1.678 z m -2.954,1.062 0.351,0.125 c 0.098,-0.222 0.16,-0.353 0.187,-0.392 0.138,-0.114 0.192,-0.131 0.26,-0.141 0.071,-0.014 0.321,-0.035 0.751,-0.064 l 1.187,-0.057 3.118,-0.141 1.093,-0.033 0.213,-0.601 -3.749,-3.457 -0.487,-0.467 -0.33,-0.307 c -0.094,-0.154 -0.102,-0.187 -0.102,-0.223 10e-4,-0.037 0.02,-0.125 0.059,-0.259 l -0.307,-0.319 -0.391,1.186 -0.553,1.478 0.352,0.123 c 0.135,-0.336 0.222,-0.521 0.259,-0.554 0.218,0 0.322,0.072 0.46,0.195 l 0.803,0.693 -0.772,2.178 -0.574,0.006 c -0.44,0.004 -0.708,-0.012 -0.803,-0.045 -0.136,-0.201 -0.09,-0.412 0.018,-0.752 l -0.352,-0.125 -0.32,0.988 z m 0.394,1.137 -0.498,-0.027 c -0.348,0.242 -0.623,0.478 -0.825,0.711 -0.203,0.228 -0.408,0.541 -0.614,0.935 -0.294,0.565 -0.464,1.109 -0.512,1.635 -0.033,0.414 0.006,0.801 0.12,1.16 0.113,0.359 0.275,0.676 0.485,0.947 0.315,0.41 0.717,0.742 1.207,0.998 0.836,0.434 1.668,0.504 2.493,0.207 0.83,-0.296 1.517,-0.968 2.061,-2.011 0.187,-0.36 0.327,-0.696 0.422,-1.008 0.096,-0.315 0.175,-0.695 0.236,-1.143 l -0.564,-0.191 c -0.32,-0.117 -0.611,-0.236 -0.871,-0.358 l -0.162,0.311 c 0.289,0.158 0.515,0.293 0.68,0.404 0.093,0.276 0.127,0.547 0.101,0.819 -0.022,0.267 -0.123,0.576 -0.303,0.92 -0.325,0.625 -0.783,1.021 -1.373,1.191 -0.589,0.17 -1.236,0.07 -1.942,-0.297 -0.428,-0.223 -0.769,-0.478 -1.023,-0.769 -0.252,-0.293 -0.428,-0.6 -0.528,-0.918 -0.098,-0.319 -0.14,-0.608 -0.124,-0.871 0.023,-0.356 0.142,-0.739 0.356,-1.151 0.141,-0.271 0.305,-0.512 0.493,-0.723 0.186,-0.209 0.428,-0.418 0.724,-0.625 z m 1.188,9.344 -0.33,-0.219 c -0.175,0.248 -0.284,0.391 -0.327,0.43 -0.25,0.064 -0.339,0.023 -0.464,-0.047 l -0.374,-0.233 -1.003,-0.64 -1.509,-1 -0.679,-0.465 c -0.257,-0.17 -0.415,-0.293 -0.476,-0.369 -0.051,-0.139 -0.041,-0.188 -0.021,-0.244 0.025,-0.061 0.116,-0.213 0.273,-0.461 l -0.33,-0.219 c -0.254,0.418 -0.535,0.857 -0.84,1.318 -0.266,0.403 -0.511,0.756 -0.735,1.061 l 0.329,0.219 0.325,-0.432 0.567,0.127 c 0.312,0.178 0.597,0.351 0.851,0.519 l 1.565,1.036 0.954,0.642 c 0.309,0.223 0.498,0.369 0.566,0.44 0.016,0.254 -0.077,0.42 -0.247,0.697 l 0.33,0.219 c 0.193,-0.325 0.424,-0.69 0.694,-1.098 0.302,-0.457 0.596,-0.885 0.881,-1.281 m -10.267,3.461 c 0.253,0.101 0.367,0.052 0.52,-0.006 0.266,0.01 0.483,0.164 0.849,0.439 0.368,0.278 0.805,0.617 1.308,1.018 l 1.366,1.097 c 0.433,0.36 0.672,0.575 0.719,0.647 0.013,0.186 -0.106,0.383 -0.337,0.697 l 0.31,0.246 c 0.223,-0.308 0.486,-0.654 0.79,-1.037 0.339,-0.428 0.668,-0.826 0.986,-1.197 l -0.31,-0.246 c -0.222,0.256 -0.372,0.4 -0.449,0.435 -0.155,-0.011 -0.309,-0.115 -0.575,-0.308 -0.265,-0.195 -0.595,-0.449 -0.988,-0.762 l -1.013,-0.812 -0.995,-0.797 -0.592,-0.483 0.504,-0.677 c 0.284,-0.356 0.552,-0.651 0.805,-0.881 0.214,-0.143 0.273,-0.127 0.36,-0.094 0.216,0.096 0.456,0.211 0.721,0.35 l 0.232,-0.291 -0.904,-0.559 -0.426,-0.287 c -0.327,0.306 -0.509,0.523 -0.747,0.824 l -0.64,0.84 -0.63,0.82 c -0.181,0.231 -0.47,0.571 -0.864,1.024 m -2.394,7.203 c -0.489,-0.498 -0.826,-0.977 -1.01,-1.438 -0.183,-0.459 -0.233,-0.861 -0.152,-1.205 0.082,-0.345 0.268,-0.66 0.558,-0.945 0.27,-0.266 0.573,-0.438 0.91,-0.518 0.34,-0.082 0.719,-0.029 1.139,0.16 0.422,0.184 0.847,0.495 1.275,0.93 0.294,0.301 0.53,0.606 0.706,0.918 0.18,0.311 0.293,0.613 0.342,0.906 0.05,0.295 0.036,0.569 -0.039,0.825 -0.075,0.254 -0.249,0.515 -0.522,0.785 -0.312,0.304 -0.65,0.494 -1.015,0.562 -0.361,0.069 -0.732,0.01 -1.113,-0.177 -0.38,-0.19 -0.74,-0.458 -1.079,-0.803 m -1.173,0.781 c 0.384,0.391 0.777,0.674 1.18,0.848 0.405,0.174 0.817,0.254 1.237,0.24 0.419,-0.014 0.801,-0.104 1.149,-0.268 0.442,-0.213 0.859,-0.509 1.25,-0.894 0.388,-0.383 0.688,-0.783 0.897,-1.203 0.153,-0.315 0.241,-0.639 0.266,-0.975 0.028,-0.334 0.009,-0.629 -0.059,-0.885 -0.068,-0.257 -0.175,-0.507 -0.321,-0.75 -0.144,-0.244 -0.332,-0.486 -0.565,-0.722 -0.395,-0.403 -0.83,-0.705 -1.307,-0.912 -0.354,-0.157 -0.727,-0.237 -1.122,-0.239 -0.391,-0.006 -0.766,0.063 -1.123,0.203 -0.486,0.198 -0.952,0.514 -1.396,0.952 -0.481,0.472 -0.809,0.964 -0.986,1.478 -0.172,0.514 -0.189,1.037 -0.051,1.568 0.136,0.534 0.454,1.053 0.951,1.559 m -6.529,1.012 0.22,0.295 c 0.296,-0.205 0.481,-0.313 0.555,-0.323 0.077,-0.011 0.15,0.008 0.219,0.063 0.103,0.084 0.347,0.385 0.732,0.904 l 1.6,2.162 c 0.435,0.59 0.675,0.922 0.72,0.998 l -0.515,0.383 c -0.261,0.192 -0.496,0.354 -0.706,0.483 -0.186,0.07 -0.232,0.039 -0.295,-0.022 -0.157,-0.146 -0.314,-0.32 -0.474,-0.527 l -0.3,0.222 0.599,0.848 0.218,0.369 c 0.163,-0.084 0.278,-0.181 0.402,-0.281 0.201,-0.16 0.597,-0.459 1.187,-0.897 l 1.459,-1.08 c 0.606,-0.449 1.015,-0.746 1.225,-0.89 l 0.355,-0.223 c -0.121,-0.193 -0.23,-0.312 -0.317,-0.42 l -0.599,-0.779 -0.3,0.223 c 0.135,0.191 0.251,0.38 0.351,0.572 -0.212,0.465 -0.442,0.65 -0.719,0.855 l -0.516,0.383 c -0.07,-0.078 -0.317,-0.406 -0.743,-0.98 l -1.6,-2.162 c -0.385,-0.52 -0.602,-0.844 -0.655,-0.969 -0.029,-0.074 -0.027,-0.149 0.005,-0.221 0.034,-0.07 0.192,-0.217 0.473,-0.439 l -0.218,-0.297 c -0.451,0.367 -0.837,0.67 -1.157,0.906 -0.342,0.254 -0.744,0.535 -1.206,0.844 m -4.048,5.336 0.835,-0.469 0.819,-0.43 0.261,2.496 z m -2.904,-1.188 0.178,0.328 c 0.222,-0.099 0.355,-0.156 0.4,-0.166 0.18,0.008 0.231,0.032 0.288,0.069 0.062,0.037 0.262,0.189 0.6,0.455 l 0.92,0.754 2.409,1.98 0.834,0.707 0.561,-0.305 -0.471,-5.08 -0.049,-0.671 -0.039,-0.45 c 0.031,-0.177 0.049,-0.207 0.072,-0.234 0.026,-0.027 0.099,-0.078 0.218,-0.154 l -0.015,-0.442 -1.084,0.619 -1.399,0.731 0.178,0.328 c 0.325,-0.16 0.514,-0.24 0.564,-0.24 0.161,0.144 0.189,0.269 0.21,0.451 l 0.133,1.055 -2.03,1.101 -0.431,-0.379 c -0.328,-0.291 -0.517,-0.482 -0.565,-0.572 0.033,-0.238 0.209,-0.365 0.516,-0.545 l -0.178,-0.328 -0.899,0.519 z m -0.471,1.131 -0.359,-0.346 c -0.421,-0.047 -0.783,-0.048 -1.089,-0.006 -0.303,0.04 -0.662,0.141 -1.077,0.305 -0.591,0.233 -1.076,0.533 -1.457,0.899 -0.298,0.291 -0.522,0.609 -0.672,0.955 -0.151,0.345 -0.235,0.689 -0.255,1.031 -0.031,0.518 0.054,1.033 0.255,1.547 0.346,0.877 0.928,1.474 1.745,1.793 0.821,0.32 1.78,0.263 2.874,-0.168 0.376,-0.149 0.703,-0.311 0.979,-0.483 0.279,-0.175 0.588,-0.412 0.928,-0.709 l -0.299,-0.515 c -0.166,-0.297 -0.307,-0.578 -0.423,-0.842 l -0.326,0.129 c 0.115,0.308 0.197,0.558 0.247,0.752 -0.109,0.269 -0.263,0.496 -0.46,0.683 -0.192,0.19 -0.47,0.354 -0.833,0.498 -0.654,0.258 -1.26,0.256 -1.816,-0.003 -0.555,-0.258 -0.979,-0.756 -1.27,-1.497 -0.177,-0.449 -0.266,-0.867 -0.267,-1.251 0.003,-0.389 0.071,-0.735 0.204,-1.041 0.135,-0.305 0.294,-0.551 0.477,-0.739 0.252,-0.254 0.593,-0.467 1.024,-0.636 0.285,-0.112 0.566,-0.186 0.845,-0.223 0.279,-0.035 0.598,-0.033 0.958,0.004 z"
       style="fill:#646567;fill-opacity:1;fill-rule:evenodd;stroke:none"
       id="path893" /><path
       d="m 134.5342,440.856 c 0.275,0.059 0.532,0.131 0.771,0.221 0.373,0.138 0.688,0.3 0.948,0.488 0.192,0.139 0.346,0.293 0.464,0.465 0.118,0.172 0.209,0.394 0.273,0.668 0.066,0.275 0.084,0.578 0.051,0.912 -0.031,0.334 -0.113,0.676 -0.244,1.025 -0.12,0.321 -0.276,0.614 -0.469,0.881 -0.193,0.27 -0.424,0.483 -0.693,0.639 -0.269,0.154 -0.564,0.23 -0.885,0.224 -0.321,-0.003 -0.769,-0.113 -1.344,-0.328 -0.216,-0.082 -0.448,-0.187 -0.695,-0.322 0.12,-0.408 0.387,-1.164 0.8,-2.268 l 0.362,-0.966 c 0.313,-0.838 0.533,-1.383 0.661,-1.639 m -1.491,-1.143 c 0.102,0.413 0.177,0.51 0.242,0.61 -0.109,0.387 -0.322,1.002 -0.638,1.847 l -0.259,0.69 -0.629,1.621 c -0.157,0.393 -0.269,0.639 -0.339,0.736 l -0.738,-0.064 -0.127,0.342 1.536,0.545 1.006,0.4 0.858,0.334 c 0.496,0.186 0.905,0.303 1.225,0.352 0.322,0.054 0.619,0.054 0.891,0.001 0.271,-0.048 0.516,-0.136 0.736,-0.261 0.223,-0.125 0.412,-0.278 0.569,-0.459 0.264,-0.305 0.475,-0.666 0.633,-1.088 0.2,-0.535 0.28,-1.051 0.242,-1.545 -0.039,-0.494 -0.177,-0.947 -0.417,-1.359 -0.236,-0.413 -0.532,-0.756 -0.885,-1.032 -0.355,-0.273 -0.815,-0.515 -1.382,-0.726 l -1.259,-0.442 z m -6.297,-0.607 0.847,0.445 0.807,0.453 -1.951,1.579 z m -0.585,-3.082 -0.177,0.328 c 0.204,0.131 0.323,0.213 0.357,0.244 0.091,0.156 0.099,0.211 0.099,0.28 0.002,0.072 -0.017,0.322 -0.055,0.751 l -0.131,1.182 -0.351,3.102 -0.14,1.086 0.561,0.302 4.003,-3.164 0.539,-0.408 0.355,-0.279 c 0.165,-0.071 0.2,-0.071 0.234,-0.067 0.038,0.008 0.121,0.041 0.248,0.1 l 0.363,-0.254 -1.11,-0.57 -1.373,-0.776 -0.177,0.327 c 0.311,0.187 0.48,0.3 0.508,0.343 -0.034,0.215 -0.124,0.305 -0.265,0.424 l -0.811,0.684 -2.029,-1.1 0.084,-0.568 c 0.065,-0.436 0.122,-0.698 0.171,-0.787 0.22,-0.102 0.421,-0.024 0.739,0.134 l 0.178,-0.328 -0.925,-0.47 z m -4.997,-2.945 c 0.246,0.136 0.471,0.281 0.673,0.435 0.316,0.244 0.571,0.492 0.764,0.746 0.142,0.188 0.245,0.381 0.307,0.58 0.063,0.2 0.084,0.44 0.066,0.719 -0.017,0.281 -0.089,0.578 -0.217,0.887 -0.128,0.31 -0.306,0.613 -0.534,0.91 -0.208,0.271 -0.443,0.506 -0.705,0.705 -0.264,0.201 -0.547,0.338 -0.85,0.408 -0.302,0.069 -0.607,0.055 -0.912,-0.043 -0.306,-0.099 -0.702,-0.334 -1.189,-0.709 -0.183,-0.138 -0.373,-0.31 -0.57,-0.509 0.235,-0.356 0.711,-1.002 1.428,-1.936 l 0.629,-0.82 c 0.543,-0.707 0.913,-1.166 1.11,-1.373 m -1.091,-1.528 c -0.023,0.424 0.02,0.539 0.054,0.653 -0.218,0.338 -0.602,0.865 -1.151,1.58 l -0.448,0.586 -1.077,1.365 c -0.264,0.33 -0.444,0.531 -0.539,0.605 l -0.687,-0.277 -0.221,0.289 1.31,0.971 0.845,0.676 0.722,0.572 c 0.42,0.322 0.777,0.553 1.069,0.695 0.292,0.145 0.575,0.233 0.851,0.262 0.273,0.031 0.533,0.019 0.78,-0.035 0.249,-0.055 0.475,-0.147 0.679,-0.274 0.341,-0.213 0.649,-0.498 0.922,-0.855 0.348,-0.453 0.576,-0.924 0.684,-1.406 0.106,-0.485 0.106,-0.959 -0.002,-1.424 -0.105,-0.461 -0.287,-0.877 -0.544,-1.244 -0.26,-0.366 -0.63,-0.733 -1.109,-1.1 l -1.075,-0.791 z m -4.985,3.914 0.267,-0.291 c -0.217,-0.211 -0.341,-0.341 -0.373,-0.39 -0.025,-0.256 0.03,-0.338 0.121,-0.451 l 0.287,-0.334 0.791,-0.889 1.224,-1.336 0.565,-0.598 c 0.209,-0.226 0.356,-0.365 0.44,-0.414 0.146,-0.027 0.191,-0.011 0.246,0.018 0.054,0.035 0.191,0.148 0.412,0.342 l 0.267,-0.291 c -0.372,-0.317 -0.762,-0.663 -1.171,-1.036 -0.355,-0.326 -0.666,-0.623 -0.931,-0.89 l -0.268,0.291 c 0.222,0.219 0.347,0.347 0.376,0.387 l -0.215,0.541 c -0.225,0.281 -0.441,0.533 -0.647,0.759 l -1.269,1.385 -0.783,0.842 c -0.268,0.271 -0.442,0.433 -0.522,0.49 -0.255,-0.023 -0.403,-0.14 -0.652,-0.351 l -0.267,0.291 c 0.291,0.242 0.615,0.527 0.975,0.857 0.404,0.369 0.78,0.727 1.127,1.068 m -2.484,-4.65 -0.25,-0.281 c -0.264,0.224 -0.458,0.377 -0.582,0.453 -0.16,0.019 -0.355,-0.026 -0.584,-0.129 -0.227,-0.104 -0.434,-0.262 -0.623,-0.475 -0.27,-0.304 -0.402,-0.609 -0.396,-0.916 0.006,-0.3 0.113,-0.543 0.319,-0.724 0.15,-0.129 0.292,-0.211 0.425,-0.244 0.134,-0.036 0.267,-0.032 0.398,0.007 0.131,0.039 0.294,0.125 0.49,0.256 l 0.58,0.451 0.486,0.381 c 0.208,0.139 0.394,0.235 0.561,0.287 0.164,0.055 0.319,0.077 0.464,0.065 0.144,-0.01 0.302,-0.051 0.472,-0.125 0.168,-0.072 0.334,-0.182 0.497,-0.326 0.288,-0.254 0.487,-0.537 0.6,-0.848 0.084,-0.234 0.124,-0.492 0.12,-0.773 -0.005,-0.278 -0.05,-0.532 -0.131,-0.758 -0.13,-0.365 -0.362,-0.737 -0.696,-1.112 -0.244,-0.275 -0.487,-0.5 -0.729,-0.668 -0.241,-0.169 -0.539,-0.328 -0.893,-0.474 -0.194,0.295 -0.552,0.676 -1.072,1.14 l 0.249,0.284 c 0.158,-0.149 0.37,-0.313 0.636,-0.496 0.214,-0.039 0.465,-0.002 0.753,0.111 0.288,0.113 0.54,0.293 0.756,0.537 0.189,0.213 0.319,0.434 0.392,0.666 0.072,0.236 0.075,0.449 0.008,0.641 -0.065,0.193 -0.181,0.363 -0.349,0.513 -0.141,0.125 -0.286,0.205 -0.435,0.241 -0.147,0.037 -0.3,0.027 -0.459,-0.032 -0.16,-0.058 -0.398,-0.199 -0.713,-0.425 -0.444,-0.331 -0.741,-0.541 -0.893,-0.635 -0.229,-0.143 -0.451,-0.223 -0.666,-0.244 -0.213,-0.02 -0.423,0.009 -0.629,0.088 -0.209,0.08 -0.403,0.201 -0.582,0.359 -0.251,0.223 -0.436,0.48 -0.553,0.771 -0.121,0.295 -0.163,0.58 -0.126,0.856 0.036,0.275 0.126,0.545 0.269,0.805 0.141,0.263 0.312,0.509 0.514,0.738 0.211,0.238 0.435,0.449 0.674,0.633 0.241,0.185 0.474,0.326 0.7,0.418 0.222,-0.205 0.345,-0.356 0.473,-0.496 0.127,-0.137 0.302,-0.311 0.525,-0.52 m -8.209,-8.523 -0.303,0.209 0.421,0.582 0.491,0.697 c 0.178,0.26 0.326,0.484 0.443,0.676 l 0.503,0.771 c 0.266,0.389 0.494,0.658 0.683,0.813 0.187,0.154 0.414,0.24 0.682,0.253 0.269,0.016 0.529,-0.062 0.781,-0.236 0.298,-0.205 0.506,-0.484 0.623,-0.838 0.118,-0.353 0.115,-0.771 -0.006,-1.254 0.154,-0.015 0.316,-0.023 0.486,-0.023 l 0.305,-0.008 1.358,-0.025 0.54,-0.006 c 0.374,0.015 0.598,0.029 0.672,0.041 0.22,0.086 0.284,0.156 0.366,0.269 l 0.307,-0.211 -0.583,-0.814 -0.389,-0.6 c -0.063,0.026 -0.153,0.045 -0.272,0.057 l -1.851,0.107 c -0.531,0.032 -0.958,0.041 -1.282,0.032 -0.162,-0.004 -0.296,-0.026 -0.402,-0.063 0.12,0.414 0.243,0.658 0.277,0.858 0.033,0.199 -0.006,0.412 -0.115,0.64 -0.111,0.229 -0.279,0.42 -0.504,0.574 -0.227,0.157 -0.453,0.233 -0.678,0.227 -0.226,-0.004 -0.423,-0.066 -0.592,-0.185 -0.109,-0.079 -0.254,-0.25 -0.438,-0.518 -0.081,-0.119 -0.151,-0.242 -0.212,-0.371 l 0.585,-0.436 1.385,-0.984 1.185,-0.799 0.881,-0.574 c 0.143,-0.088 0.243,-0.135 0.298,-0.145 0.244,0.135 0.349,0.272 0.517,0.506 l 0.326,-0.224 c -0.306,-0.413 -0.606,-0.832 -0.902,-1.264 -0.265,-0.387 -0.503,-0.748 -0.713,-1.086 l -0.326,0.225 c 0.183,0.287 0.284,0.462 0.302,0.527 -0.159,0.277 -0.295,0.389 -0.485,0.531 l -1.061,0.772 -1.374,0.945 -0.791,0.523 c -0.312,0.207 -0.507,0.319 -0.586,0.336 -0.171,-0.05 -0.322,-0.216 -0.552,-0.507 m 2.282,-8.372 -0.215,0.112 c 0.009,0.197 0,0.369 -0.028,0.51 -0.103,0.074 -0.276,0.181 -0.521,0.324 -0.445,0.258 -0.772,0.441 -0.979,0.551 l -1.794,0.933 -0.783,0.393 c -0.304,0.148 -0.497,0.224 -0.578,0.23 -0.161,-0.084 -0.285,-0.262 -0.462,-0.564 l -0.339,0.176 0.501,0.914 0.278,0.523 0.62,1.223 0.401,0.818 0.319,0.574 0.692,-0.256 0.554,-0.338 -0.162,-0.31 c -0.316,0.156 -0.515,0.246 -0.596,0.264 -0.147,-0.028 -0.223,-0.123 -0.335,-0.291 -0.166,-0.248 -0.314,-0.498 -0.445,-0.75 -0.124,-0.237 -0.24,-0.483 -0.35,-0.741 0.281,-0.193 0.653,-0.41 1.115,-0.65 l 0.816,-0.426 c 0.107,0.174 0.213,0.358 0.315,0.555 l 0.328,0.67 c 0.072,0.144 0.106,0.232 0.103,0.265 -0.137,0.188 -0.296,0.293 -0.53,0.422 l 0.168,0.325 0.868,-0.473 0.881,-0.44 -0.178,-0.343 c -0.307,0.164 -0.507,0.242 -0.601,0.238 -0.313,-0.287 -0.45,-0.516 -0.599,-0.803 -0.135,-0.256 -0.237,-0.472 -0.308,-0.648 l 1.69,-0.881 0.492,-0.242 c 0.128,0.207 0.269,0.459 0.422,0.754 0.149,0.287 0.277,0.554 0.385,0.806 0.108,0.254 0.16,0.418 0.154,0.492 -0.147,0.204 -0.363,0.379 -0.691,0.618 l 0.17,0.328 c 0.496,-0.334 0.913,-0.588 1.253,-0.766 -0.045,-0.258 -0.161,-0.504 -0.324,-0.818 l -0.346,-0.635 -0.692,-1.301 z m -1.708,-4.253 -1.935,-0.057 -1.65,-0.063 c -1.295,-0.048 -2.069,-0.089 -2.323,-0.119 -0.256,-0.025 -0.41,-0.06 -0.461,-0.105 -0.077,-0.067 -0.167,-0.231 -0.271,-0.492 l -0.366,0.136 0.488,1.217 0.535,1.522 0.366,-0.137 c -0.085,-0.236 -0.135,-0.414 -0.15,-0.529 0.032,-0.186 0.061,-0.209 0.104,-0.225 0.084,-0.033 0.385,-0.039 0.903,-0.023 l 0.484,0.011 3.08,0.094 -1.965,1.801 -0.684,0.595 c -0.29,0.252 -0.486,0.415 -0.591,0.485 -0.305,0.006 -0.331,-0.041 -0.367,-0.121 l -0.202,-0.451 -0.366,0.136 0.424,1.059 0.315,0.918 0.365,-0.137 c -0.076,-0.281 -0.106,-0.451 -0.088,-0.508 0.03,-0.097 0.29,-0.377 0.777,-0.834 l 0.587,-0.56 1.142,-1.074 c 0.976,-0.916 1.672,-1.547 2.087,-1.899 z m -7.352,-2.053 0.383,-0.1 c -0.067,-0.295 -0.1,-0.471 -0.099,-0.529 0.118,-0.231 0.209,-0.268 0.345,-0.313 l 0.423,-0.125 1.149,-0.314 1.753,-0.455 0.798,-0.193 c 0.299,-0.077 0.498,-0.114 0.594,-0.108 0.224,0.207 0.278,0.377 0.357,0.66 l 0.382,-0.099 c -0.139,-0.469 -0.279,-0.971 -0.417,-1.506 -0.121,-0.467 -0.219,-0.887 -0.296,-1.256 l -0.383,0.1 0.105,0.529 -0.475,0.336 c -0.342,0.115 -0.66,0.209 -0.956,0.285 l -1.819,0.471 -1.115,0.281 c -0.372,0.08 -0.607,0.123 -0.705,0.127 -0.2,-0.158 -0.261,-0.338 -0.354,-0.651 l -0.382,0.098 c 0.111,0.361 0.228,0.777 0.35,1.25 0.137,0.531 0.258,1.035 0.362,1.512 m 3.696,-12.071 c 0.034,0.354 0.048,0.555 0.041,0.608 -0.312,0.205 -0.581,0.267 -1.01,0.355 -0.244,0.049 -0.563,0.104 -0.957,0.162 l -1.426,0.213 -1.296,0.178 c -0.216,0.029 -0.358,0.041 -0.425,0.035 -0.189,-0.066 -0.221,-0.109 -0.248,-0.17 -0.028,-0.064 -0.076,-0.25 -0.143,-0.56 l -0.374,0.054 0.151,0.829 0.083,0.646 0.047,0.41 c 0.888,0.49 1.917,1.092 3.086,1.803 0.842,0.514 1.506,0.943 1.991,1.291 l -1.026,0.154 c -1.594,0.241 -2.534,0.364 -2.82,0.369 -0.112,0.004 -0.187,-0.011 -0.226,-0.048 -0.063,-0.061 -0.127,-0.286 -0.192,-0.68 l -0.373,0.057 c 0.072,0.357 0.13,0.689 0.175,0.99 0.043,0.293 0.091,0.674 0.142,1.138 l 0.373,-0.056 c -0.044,-0.363 -0.05,-0.582 -0.016,-0.656 0.202,-0.125 0.536,-0.207 1.064,-0.301 l 1.166,-0.194 c 1.97,-0.294 3.167,-0.455 3.594,-0.478 l -0.198,-0.807 c -1.212,-0.797 -3.019,-1.912 -5.423,-3.347 l 2.212,-0.332 c 0.459,-0.069 0.939,-0.131 1.439,-0.188 0.346,-0.041 0.558,-0.055 0.635,-0.041 0.217,0.377 0.25,0.516 0.263,0.606 l 0.369,0.035 -0.153,-0.957 c -0.042,-0.289 -0.092,-0.68 -0.147,-1.174 z m -5.548,-7.562 -0.372,0.004 0.039,1.459 -0.004,0.608 -0.009,0.607 0.37,0.162 c -0.003,-0.324 0.025,-0.529 0.08,-0.617 0.342,-0.135 0.75,-0.158 1.383,-0.164 l 1.042,-0.01 h 0.525 c 0.548,-0.006 0.887,-0.004 1.016,0.008 0.282,0.026 0.509,0.092 0.684,0.205 0.172,0.112 0.312,0.285 0.422,0.518 0.107,0.234 0.162,0.533 0.165,0.896 0.004,0.416 -0.064,0.748 -0.202,0.994 -0.142,0.25 -0.327,0.43 -0.553,0.536 -0.227,0.107 -0.659,0.164 -1.296,0.169 l -0.917,0.008 -1.446,0.01 c -0.378,-0.006 -0.605,-0.025 -0.684,-0.057 -0.16,-0.201 -0.192,-0.416 -0.204,-0.748 l -0.373,0.002 0.04,0.967 -0.022,1.119 0.373,-0.004 c -0.002,-0.279 0.018,-0.455 0.063,-0.527 0.204,-0.111 0.506,-0.137 1.045,-0.162 0.539,-0.025 0.964,-0.039 1.275,-0.043 l 1.056,-0.01 c 0.27,-0.002 0.548,-0.023 0.835,-0.066 0.287,-0.041 0.532,-0.123 0.734,-0.244 0.204,-0.12 0.386,-0.287 0.549,-0.504 0.163,-0.217 0.285,-0.475 0.366,-0.772 0.081,-0.297 0.121,-0.64 0.117,-1.029 -0.004,-0.455 -0.069,-0.881 -0.195,-1.275 -0.092,-0.286 -0.214,-0.52 -0.365,-0.702 -0.154,-0.181 -0.325,-0.318 -0.512,-0.412 -0.189,-0.095 -0.371,-0.152 -0.544,-0.172 -0.108,-0.013 -0.399,-0.017 -0.872,-0.013 l -0.862,0.011 -1.141,0.012 c -0.419,0.004 -0.796,-0.002 -1.132,-0.017 -0.132,-0.008 -0.228,-0.026 -0.288,-0.051 z"
       style="fill:#646567;fill-opacity:1;fill-rule:evenodd;stroke:none"
       id="path897" /><path
       d="m 188.2046,414.5474 c 0.825,-0.197 1.333,-1.027 1.134,-1.854 -0.199,-0.824 -1.03,-1.334 -1.854,-1.134 -0.825,0.197 -1.333,1.027 -1.134,1.853 0.199,0.824 1.029,1.332 1.854,1.135 m 6.125,-3.141 c -0.253,-0.736 -1.161,-1.195 -2.555,-1.316 0.282,-1.326 0.122,-2.275 -0.473,-2.647 -0.738,-0.287 -1.618,-0.023 -2.639,0.79 -0.786,-1.311 -1.636,-1.967 -2.368,-1.795 -0.757,0.332 -1.2,1.199 -1.327,2.597 -1.41,-0.328 -2.42,-0.179 -2.805,0.438 -0.302,0.773 0,1.701 0.905,2.783 -1.187,0.752 -1.773,1.555 -1.611,2.252 0.315,0.719 1.111,1.154 2.387,1.305 -0.363,1.474 -0.169,2.472 0.549,2.925 0.695,0.338 1.651,0.03 2.71,-0.853 0.741,1.115 1.524,1.598 2.295,1.422 0.698,-0.24 1.147,-1.069 1.294,-2.34 1.389,0.31 2.331,0.105 2.767,-0.586 0.323,-0.662 0.057,-1.563 -0.734,-2.564 1.247,-0.774 1.79,-1.598 1.605,-2.411 m -3.058,-1.343 c -0.513,-0.014 -1.082,0.011 -1.696,0.08 -0.212,-0.547 -0.436,-1.039 -0.669,-1.477 0.85,-0.719 1.548,-0.986 2.095,-0.801 0.422,0.27 0.518,1.073 0.27,2.198 m -2.204,0.146 -0.799,0.133 0.712,0.392 h 0.282 l 0.077,0.221 -0.308,-0.189 c -0.292,-0.17 -0.529,-0.301 -0.763,-0.424 l -0.676,-0.342 c 0.329,-0.379 0.639,-0.709 0.935,-0.99 0.186,0.359 0.367,0.76 0.54,1.199 m -1.582,0.295 -0.316,0.074 0.092,-0.183 z m -1.259,0.352 -0.727,0.248 c -0.045,-0.524 -0.066,-1 -0.062,-1.428 0.414,0.125 0.86,0.291 1.33,0.494 z m -1.235,0.441 c -0.557,0.223 -1.057,0.459 -1.492,0.701 -0.805,-0.908 -1.11,-1.648 -0.917,-2.224 0.284,-0.442 1.147,-0.528 2.353,-0.235 -0.018,0.524 0,1.11 0.056,1.758 m -0.585,4.563 c 0.496,0.025 1.05,0.015 1.665,-0.03 0.242,0.612 0.493,1.145 0.752,1.598 -0.972,0.867 -1.737,1.127 -2.19,0.801 -0.448,-0.311 -0.517,-1.18 -0.227,-2.369 m 2.221,-0.079 0.788,-0.091 0.711,0.349 c -0.309,0.379 -0.607,0.709 -0.889,0.994 -0.21,-0.367 -0.415,-0.787 -0.61,-1.252 m 1.706,-0.228 0.223,-0.059 z m 1.075,-0.313 0.742,-0.246 c 0.04,0.465 0.057,0.889 0.052,1.272 -0.381,-0.11 -0.79,-0.254 -1.22,-0.43 z m 1.277,-0.443 c 0.599,-0.23 1.125,-0.469 1.579,-0.715 0.773,0.91 0.995,1.625 0.684,2.059 -0.297,0.426 -1.102,0.508 -2.213,0.261 0.022,-0.484 0.006,-1.023 -0.05,-1.605 m 3.114,-3.199 c 0.093,0.521 -0.443,1.166 -1.442,1.789 -0.353,-0.387 -0.78,-0.785 -1.277,-1.188 0.241,-0.566 0.43,-1.097 0.565,-1.586 1.325,0.069 2.063,0.428 2.154,0.985 m -1.919,2.066 c -0.374,0.201 -0.795,0.399 -1.257,0.586 -0.034,-0.266 -0.076,-0.539 -0.127,-0.82 l 0.351,-0.709 c 0.397,0.328 0.742,0.644 1.033,0.943 m -1.785,0.789 -0.222,0.08 0.168,-0.271 z m -1.026,0.34 c -0.316,0.094 -0.644,0.184 -0.983,0.268 l -0.576,0.084 c -0.344,-0.18 -0.695,-0.379 -1.05,-0.594 l -0.383,-0.283 c -0.12,-0.383 -0.232,-0.785 -0.334,-1.203 l -0.058,-0.381 c 0.165,-0.309 0.345,-0.623 0.538,-0.944 l 0.343,-0.463 c 0.297,-0.087 0.606,-0.169 0.926,-0.248 l 0.731,-0.138 0.668,0.388 0.695,0.479 0.189,0.713 0.169,0.922 c -0.139,0.256 -0.289,0.515 -0.45,0.779 z m -5.094,0.539 c -1.085,-0.096 -1.755,-0.398 -2.009,-0.908 -0.11,-0.502 0.416,-1.156 1.435,-1.791 0.331,0.355 0.724,0.726 1.178,1.113 -0.255,0.572 -0.456,1.102 -0.604,1.586 m 1.573,-3.717 0.02,0.178 z m 5.127,0.266 -0.666,-0.482 0.216,0.75 0.222,0.25 -0.111,0.232 -0.089,-0.387 -0.238,-0.845 -0.238,-0.723 c 0.498,-0.049 0.953,-0.074 1.363,-0.076 -0.116,0.398 -0.268,0.828 -0.459,1.281 m -3.575,-2.107 c -0.585,-0.258 -1.137,-0.461 -1.646,-0.61 0.073,-1.209 0.382,-1.947 0.925,-2.219 0.531,-0.115 1.231,0.479 1.898,1.614 -0.375,0.336 -0.766,0.74 -1.177,1.215 m -2.095,4.326 0.62,0.486 0.684,0.504 0.297,0.168 -0.181,0.018 -0.116,-0.186 -0.684,-0.504 0.253,0.736 c -0.49,0.038 -0.935,0.049 -1.336,0.041 0.12,-0.396 0.274,-0.818 0.463,-1.263 m 3.64,2.174 c 0.553,0.238 1.064,0.423 1.532,0.56 -0.095,1.192 -0.445,1.856 -0.971,1.942 -0.491,0.089 -1.092,-0.381 -1.68,-1.27 0.365,-0.348 0.741,-0.76 1.119,-1.232 m -3.603,-4.463 0.098,0.777 0.115,0.752 0.104,0.371 -0.07,-0.244 -0.149,-0.879 -0.334,0.668 c -0.363,-0.309 -0.682,-0.604 -0.957,-0.885 0.354,-0.191 0.753,-0.381 1.193,-0.56"
       style="fill:#646567;fill-opacity:1;fill-rule:evenodd;stroke:none"
       id="path901" /><path
       d="m 165.5493,404.0688 3.795,3.813 0.528,-3.813 z m -1.369,4.381 h 4.323 l -3.775,-3.795 z m -5.047,0 h 4.088 l 0.529,-3.736 z m -0.802,-0.588 4.675,-3.773 h -4.401 z m 6.671,-7.988 3.869,2.269 -1.526,-2.269 z m 3.588,3.22 -4.687,-2.683 0.83,2.683 z m -8.582,-3.246 3.504,2.514 -0.829,-2.514 z m -1.366,3.223 h 4.187 l -3.992,-2.758 z m -13.891,0.023 h 4.235 l -0.194,-2.806 z m -0.61,-0.755 3.528,-2.465 h -2.747 z m -5.346,-0.221 3.93,-2.27 h -2.392 z m 0.195,0.976 h 3.881 l 0.83,-2.683 z m 4.443,4.723 -0.611,-3.723 h -4.198 z m 1,0.074 3.846,-3.797 h -4.48 z m 0.879,0.537 h 3.992 l -0.219,-3.722 z m -7.336,-3.625 0.721,3.649 h 4.003 z m 22.823,-34.136 h 8.282 l -7.812,-6.342 z m -0.551,6.709 8.547,-5.67 h -8.118 z m -21.499,-5.67 8.608,5.733 -0.49,-5.733 z m -0.122,-1.039 h 8.302 l -0.428,-6.404 z m 16.236,-3.283 4.957,2.855 0.367,-5.976 z m -7.016,2.916 4.895,-2.916 -5.262,-3.059 z m 1.407,0.367 h 9.158 l -4.65,-2.732 z m -0.918,6.955 9.954,-5.916 h -10.321 z m 1.346,0.367 h 9.587 l 0.367,-5.853 z m 0.061,0.916 9.159,5.549 0.306,-5.549 z m 7.751,5.914 -9.096,-5.363 0.489,5.363 z m -8.362,6.057 8.424,-4.955 h -8.669 z m 1.529,0.287 h 7.751 l 0.306,-4.814 z m 0,1.223 7.323,4.65 0.368,-4.65 z m 6.161,5.015 -7.568,-4.708 0.367,4.708 z m -6.895,5.242 6.834,-4.201 h -7.14 z m 1.163,0.367 h 6.527 l 0.306,-4.16 z m 0.183,1.041 6.038,4.018 0.245,-4.018 z m 4.815,4.383 -6.039,-3.894 0.245,3.894 z m -5.427,4.588 5.366,-3.486 h -5.672 z m 1.162,0.43 h 5.121 l 0.306,-3.549 z m 0.062,1.019 4.814,3.243 0.245,-3.243 z m -1.163,0.491 0.306,3.179 h 4.57 z m 20.195,-47.59 v 4.03 l -10.73,7.382 -1.273,20.111 8.933,-0.004 3.089,4.592 -0.839,5.959 h -11.861 l -0.624,9.721 -7.604,-0.012 -0.618,-9.715 h -11.457 l -1.249,-5.937 3.133,-4.618 h 8.888 l -1.286,-20.097 -10.731,-7.382 v -4.102 c 0.322,-0.219 0.648,-0.432 0.979,-0.639 v 3.395 l 8.711,-6.832 v -0.233 l 1.041,-0.238 v 0.227 l 6.465,3.853 6.303,-3.793 v -0.33 c 0.383,0.082 0.764,0.172 1.143,0.27 v 0.244 l 8.669,6.892 v -3.353 c 0.31,0.197 0.615,0.4 0.918,0.609 m -28.885,71.135 c -20.551,-4.735 -37.724,-26.057 -35.815,-50.055 1.805,-22.64 20.135,-43.775 47.357,-44.318 24.129,0.328 46.459,17.369 48.234,45.441 1.238,23.119 -13.85,42.39 -34.473,48.613 -0.66,-6.494 -3.126,-11.34 -7.398,-14.535 14.358,-2.664 24.686,-14.662 25.865,-30.634 0.298,-18.889 -14.214,-32.356 -31.655,-32.85 -17.933,-0.369 -32.983,14.736 -32.516,32.486 0.576,17.775 12.85,29.096 27.657,31.281 -4.172,2.938 -6.591,7.793 -7.256,14.571 m 25.434,1.414 c 21.714,-5.635 37.243,-27.506 36.162,-50.56 -1.66,-27.1 -23.11,-46.336 -50.086,-46.94 -26.433,0.07 -47.722,21.354 -49.144,46.084 -1.168,29.062 18.18,47.154 37.502,51.791 0.142,12.269 5.759,19.193 12.613,19.482 6.986,0.09 13.243,-7.738 12.953,-19.857 m 15.815,-54.336 c 0.537,2.412 0.783,4.943 0.697,7.563 -0.381,16.585 -13.028,27.739 -27.201,29.255 l -0.371,-0.063 c 0.742,0.965 0.808,2.258 0.17,3.19 -0.432,-0.963 -1.38,-1.539 -2.416,-1.551 -1.022,0 -1.842,0.522 -2.296,1.274 -0.43,-0.791 -0.463,-1.836 0.283,-2.727 -14.75,-0.867 -28.033,-12.197 -28.742,-29.953 0.021,-2.388 0.305,-4.724 0.831,-6.974 l 22.458,-0.004 0.795,12.31 h -8.369 l -3.64,5.328 1.468,7.174 11.348,-0.01 0.663,9.891 9.716,-0.004 0.631,-9.873 h 11.823 l 0.998,-7.211 -3.591,-5.303 -8.411,0.004 0.764,-12.312 z m -55.345,-9.057 c 0.533,-0.087 1.265,-0.269 2.908,-0.888 2.283,-0.84 3.695,-0.539 5.327,-0.018 2.05,0.758 3.345,1.317 5.787,0.795 l 1.501,1.022 c -1.195,0.474 -2.313,0.707 -3.35,0.691 -2.556,-0.086 -3.98,-1.441 -6.356,-1.496 -2.974,0.018 -3.796,1.232 -6.722,1.467 0.284,-0.533 0.592,-1.059 0.905,-1.573 m 12.136,-1.396 c -1.326,-0.025 -2.441,-0.443 -3.619,-0.902 -2.052,-0.791 -3.747,-0.739 -5.531,-0.11 -0.882,0.336 -1.302,0.475 -1.809,0.617 0.513,-0.722 1.056,-1.421 1.629,-2.095 2.106,-0.756 3.92,-0.614 5.911,0.166 z m -13.767,4.451 c 1.248,0.09 2.61,-0.183 4.017,-0.765 1.002,-0.389 1.911,-0.698 3.331,-0.686 1.034,-0.027 2.267,0.309 3.877,0.969 2.65,1.056 4.958,0.336 7.402,-0.66 l 1.365,0.929 0.028,0.278 c -2.491,0.158 -4.305,2.371 -8.233,1.058 -2.896,-1.084 -4.281,-1.488 -7.137,-0.521 -1.622,0.677 -3.26,1.201 -5.251,0.783 0.19,-0.467 0.39,-0.93 0.601,-1.385 m -1.119,2.756 c 1.481,0.404 2.917,0.354 4.311,-0.152 2.709,-0.985 4.279,-1.664 7.629,-0.328 0.902,0.361 3.197,1.293 5.736,0.328 1.594,-0.608 2.777,-0.951 3.56,-1.057 l 0.097,1.496 c -1.938,0.053 -4.161,1.483 -6.041,1.477 -2.353,0.013 -4.67,-1.686 -7.399,-1.477 -3.36,0.238 -4.215,2.104 -8.338,1.098 0,0 0.227,-0.766 0.445,-1.385 m 7.359,-11.637 c 1.051,-1.033 3.034,-2.576 3.034,-2.576 l -0.017,2.828 c -1.039,-0.304 -1.969,-0.342 -3.017,-0.252 m 50.274,13.108 c -4.124,1.006 -4.955,-0.951 -8.315,-1.19 -2.729,-0.209 -5.047,1.491 -7.399,1.477 -1.88,0.006 -4.104,-1.424 -6.041,-1.477 l 0.096,-1.496 c 0.784,0.106 1.967,0.451 3.56,1.057 2.539,0.965 4.835,0.033 5.736,-0.328 3.351,-1.336 4.92,-0.657 7.629,0.328 1.384,0.504 2.809,0.555 4.278,0.16 0.307,0.889 0.456,1.469 0.456,1.469 m -7.865,-13.108 c -1.065,-0.095 -1.877,-0.064 -2.933,0.246 l -0.004,-2.779 c 1.03,0.779 2.011,1.627 2.937,2.533 m -4.024,2.1 c 2.018,-0.791 3.722,-0.926 5.863,-0.133 0.568,0.664 1.108,1.352 1.617,2.065 -0.507,-0.143 -0.864,-0.282 -1.75,-0.62 -1.783,-0.628 -3.478,-0.681 -5.531,0.11 -1.211,0.472 -2.354,0.9 -3.728,0.904 z m -5.433,3.582 c 2.526,0.568 3.829,0.004 5.915,-0.768 1.632,-0.521 3.044,-0.822 5.327,0.018 1.661,0.627 2.328,0.805 2.861,0.891 0.319,0.521 0.628,1.052 0.916,1.593 -2.926,-0.232 -3.712,-1.472 -6.686,-1.488 -2.376,0.055 -3.8,1.408 -6.356,1.494 -1.074,0.018 -2.235,-0.234 -3.478,-0.742 z m -2.991,1.992 c 2.497,1.026 4.844,1.797 7.546,0.719 1.611,-0.66 2.844,-0.996 3.878,-0.969 1.42,-0.012 2.328,0.299 3.331,0.686 1.412,0.584 2.745,0.882 3.997,0.789 0.207,0.449 0.405,0.906 0.591,1.367 -1.978,0.408 -3.607,-0.115 -5.222,-0.789 -2.855,-0.967 -4.241,-0.563 -7.136,0.521 -3.928,1.313 -5.743,-0.9 -8.234,-1.058 l 0.026,-0.461 z m -8.513,72.402 c -0.705,0.303 -1.057,0.725 -1.055,1.268 -0.542,0.744 -0.213,1.232 0.426,1.169 0.698,0.137 1.242,-0.113 1.633,-0.748 0.016,-0.117 0.051,-0.228 0.104,-0.33 0.1,-0.07 0.184,-0.218 0.254,-0.449 0.08,-0.08 0.241,-0.068 0.322,-0.346 0,-0.289 0.346,-0.392 0.415,-0.703 -0.069,0.426 0.185,0.692 -0.219,0.981 -0.372,0.744 -0.595,1.265 -0.669,1.562 -0.645,1.002 -1.92,0.967 -2.243,0.588 -0.644,-0.351 -0.817,-0.945 -0.518,-1.783 0.095,-0.127 0.149,-0.264 0.161,-0.414 -0.022,-0.223 0.12,-0.445 0.426,-0.668 0.362,-0.402 0.683,-0.445 0.963,-0.127 m -0.559,-20.115 -1.168,-3.66 2.13,-0.34 z m 5.726,7.791 -0.968,-4.588 1.878,0.4 -0.015,2.637 0.148,1.029 z m 0.075,2.949 -0.507,-1.311 1.878,-2.041 -1.147,3.143 z m 0.402,0.238 1.759,-1.371 -0.686,1.863 z m -3.67,2.91 c -0.114,-0.041 0.361,-0.537 0.3,-1.384 l -0.052,-2.801 c 0,0 -0.02,-2.119 0.103,-2.666 0.125,-0.547 -0.01,-2.264 -0.01,-2.264 0,0 -0.01,-0.816 0.155,-1.199 0.165,-0.383 0.052,-1.85 0.072,-2.365 l 0.145,-3.94 c 0,0 1.209,0.176 1.757,0.889 0.548,0.715 1.199,0.59 1.199,0.59 l -1.158,2.16 c 0,0 -0.723,1.014 -0.837,1.394 -0.113,0.383 -0.176,2.141 -0.176,2.141 l -0.02,2.098 -0.166,1.334 0.31,2.613 0.063,1.57 -0.197,0.59 c -0.568,0.373 -1.188,0.559 -1.488,1.24 m -0.579,-0.125 -0.837,-0.113 -0.796,-13.517 1.023,-4.061 c 0.673,0.107 1.514,0.152 2.522,0.133 0.703,0.084 0.538,0.683 -0.145,0.508 -0.637,-0.131 -0.919,0.045 -0.847,0.527 l -0.165,4.484 c 0.073,0.789 0.017,1.512 -0.166,2.17 -0.145,0.662 0.01,1.282 0.01,2.006 -0.01,0.867 -0.153,1.604 -0.165,2.563 -0.021,3.761 0.417,4.595 -0.434,5.3 m -3.37,-0.578 c -0.321,-0.668 -0.524,-1.384 -0.611,-2.148 0.072,-1.613 0.137,-2.686 0.197,-3.215 -0.134,-0.383 0.103,-0.848 0.124,-2.305 l -0.021,-2.252 c 0.032,-1.06 0.156,-2.084 0.373,-3.07 0.157,-0.262 0.361,-0.695 0.61,-1.303 l 0.278,0.86 c -0.31,0.857 -0.547,1.084 -0.589,1.621 l -0.196,1.664 0.021,1.281 c -0.007,0.277 0.392,0.414 0.382,0.012 0,0 0.01,-0.279 -0.01,-0.672 -0.021,-0.393 0.103,-1.488 0.134,-2.025 0.031,-0.539 0.413,-1.293 0.413,-1.293 l 0.352,1.105 0.683,12.205 c -0.186,-0.01 -0.527,0.094 -0.527,0.094 -0.252,0.029 -0.669,-0.018 -1.252,-0.145 z m -0.703,-10.189 -0.507,6.676 -1.426,-0.92 -0.3,-5.27 z m -3.05,5.611 2.088,1.272 -1.25,1.033 -0.9,-2.192 z m 2.406,6.494 1.415,1.807 c -0.039,0.184 -0.03,0.311 0.028,0.381 0.053,0.097 0.008,0.217 -0.133,0.353 -0.091,0.233 -0.333,0.571 -0.727,1.014 -0.343,-0.229 -0.585,-1.059 -0.726,-2.484 z m 1.664,1.52 -1.616,-2.104 c -0.21,-0.64 0.124,-1.318 1.042,-1.08 l 0.831,1.1 0.728,1.863 z m 0.999,0.166 c 0.023,0.215 0.317,0.412 0.342,0.676 0.019,0.197 0.138,0.656 0.138,0.656 l -0.251,-0.52 c -0.173,0.327 -0.073,0.707 -0.073,0.707 l 0.205,0.639 c 0.041,0.172 -0.379,-0.389 -0.467,-0.65 -0.06,-0.178 -0.094,-0.401 -0.094,-0.401 0,0 -0.207,-0.451 -0.2,-0.625 0.006,-0.175 -0.081,-0.357 -0.081,-0.357 z m 0.886,2.558 c 0.043,-0.269 0.124,-0.513 0.244,-0.732 0.238,-0.227 0.315,-0.424 0.231,-0.594 -0.095,-0.324 0.014,-0.679 0.326,-1.062 0.218,-0.238 0.074,-0.352 0.294,-0.633 l 0.424,0.494 c -0.273,0.451 -0.444,0.836 -0.512,1.151 -0.1,0.375 -0.188,0.669 -1.007,1.376 m 3.327,-1.675 c 0.064,-0.541 0.068,-0.985 0.013,-1.326 -0.088,-0.44 -0.103,-0.805 -0.044,-1.094 l 0.551,-0.369 c 0.106,-0.182 -0.05,-0.364 -0.269,-0.276 -0.365,0.172 -0.694,0.424 -0.913,0.906 -0.326,0.475 -0.62,0.819 -0.882,1.032 l -0.62,-0.643 c 0.676,-1.82 1.239,-2.519 2.127,-2.844 0.543,-0.101 0.92,0.209 1.132,0.93 0.031,0.668 0.219,1.363 0.231,1.895 0.075,0.937 0.065,1.523 0.132,1.925 -0.051,0.233 -0.147,0.442 -0.288,0.631 -0.221,0.104 -0.4,0.129 -0.538,0.076 -0.199,-0.023 -0.41,-0.304 -0.632,-0.843 m 1.599,1.769 c 1.028,-3.396 0.178,-1.967 0.298,-5.586 l -0.343,-2.562 2.846,1.162 -1.431,4.514 z m -9.224,0.567 c -0.477,-0.612 -1.535,-3.889 -2.086,-6.748 0.558,0.484 1.472,0.107 2.741,-1.133 l -0.163,0.76 -0.283,0.789 -0.03,0.566 -0.268,1.191 -0.045,3.696 c -0.025,0.224 0.02,0.517 0.134,0.879 m 3.174,-24.125 0.041,-0.623 0.094,0.242 -0.023,-0.643 0.29,0.502 c 0.03,0.152 0.261,0.1 0.191,-0.07 l -0.291,-0.731 0.383,0.657 c 0.046,0.093 0.231,0.099 0.194,-0.079 l -0.339,-0.839 0.701,1.394 z m 2.332,24.855 c -0.074,-0.365 -0.52,-0.725 -1.039,-0.809 -0.442,-0.021 -0.35,-0.355 -2.72,-1.15 0.566,-0.785 0.981,-1.199 0.762,-1.719 0.334,0.02 0.259,0.061 0.3,0.254 0.029,0.141 0.141,0.426 0.209,0.674 0.022,0.18 0.059,0.318 0.113,0.422 0.153,0.318 0.334,0.605 0.542,0.863 0.079,0.156 0.183,0.18 0.313,0.071 0.066,-0.051 0.06,-0.194 -0.018,-0.426 l -0.185,-0.567 c 0.093,0.082 0.177,0.078 0.254,-0.009 0.135,-0.155 0.053,-0.17 0.046,-0.289 -0.179,-0.637 -0.069,-0.706 -0.48,-1.286 0.209,-0.039 0.276,-0.158 0.201,-0.361 l -0.73,-1.893 c -0.048,-0.134 -0.124,-0.265 -0.231,-0.392 l 0.75,0.08 0.945,-0.111 1.243,0.209 c -0.245,0.382 -0.946,1.679 -0.556,1.908 -0.094,0.166 -0.152,0.308 -0.173,0.428 -0.032,0.103 -0.254,0.416 -0.459,0.802 -0.205,0.619 0.22,0.682 -0.186,1.035 -0.153,0.182 -0.242,0.463 -0.305,0.838 -0.086,0.274 0.1,0.44 0.331,0.205 0.445,-0.421 0.718,-0.709 0.819,-0.863 0.132,0.338 0.313,0.522 0.626,0.649 l 0.183,0.378 c -0.126,0.625 -0.488,0.473 -0.521,0.999 z m -0.045,-2.56 c 0.119,-0.327 0.113,-0.614 0.501,-1.213 0.288,0.125 0.832,-0.577 1.238,-1.114 l 0.044,0.432 c 0.083,0.475 0.083,0.912 0,1.313 -0.013,0.326 0.42,1.021 0.651,1.175 l -1.439,0.844 -0.331,-0.65 c -0.271,-0.041 -0.446,-0.198 -0.526,-0.469 0.002,-0.145 -0.044,-0.252 -0.138,-0.318 m -0.329,3.068 c -0.197,0.172 -0.281,0.346 -0.253,0.525 -0.326,0.491 -0.789,0.688 -1.391,0.588 -0.421,0.035 -0.613,-0.101 -0.576,-0.416 l 0.3,-0.512 c 0.047,-0.603 0.472,-1.029 1.274,-1.281 0.722,0.211 0.937,0.576 0.646,1.096 m 1.55,-25.662 c 0.739,-0.379 1.293,-0.895 1.829,-1.631 l 1.114,2.226 1.078,-1.611 0.306,0.486 -0.899,2.049 0.539,1.221 1.806,-2.478 0.306,0.412 -1.662,3.242 0.458,1.33 1.455,-1.815 0.27,0.664 -1.492,1.905 0.378,1.168 2.678,-1.688 0.197,0.61 -2.642,2.228 0.27,1.151 2.031,-0.934 0.144,0.432 -2.067,1.166 0.144,0.746 3.343,-0.692 0.107,0.395 -3.325,1.285 0.144,0.934 2.283,-0.305 0.036,0.414 -2.283,0.574 0.018,0.809 3.487,0.414 0.018,0.412 h -3.397 l -0.072,0.935 2.175,0.557 -0.09,0.522 -2.103,-0.414 -0.072,0.718 2.894,1.59 -0.181,0.322 -2.785,-1.041 -0.108,0.702 1.887,1.472 -0.161,0.324 -1.834,-1.132 -0.233,1.06 2.372,2.606 -0.305,0.252 -2.3,-2.014 -0.342,1.043 1.456,1.742 -0.252,0.324 -1.456,-1.312 -0.287,0.701 1.455,3.242 -0.323,0.217 -1.734,-2.273 -0.539,0.888 0.961,1.994 -0.242,0.235 -1.133,-1.617 -1.691,1.976 c -0.208,-0.799 -0.728,-1.394 -1.561,-1.783 l 1.442,-1.039 1.215,-1.451 1.593,-2.899 1.566,-4.906 -1.419,-0.611 0.901,-2.504 -1.482,-3.012 -0.007,-2.877 -0.573,-0.131 -1.028,-2.148 1.067,-2.01 c 0.219,-0.266 0.296,-0.504 0.232,-0.717 -0.595,-1.728 -1.822,-2.549 -3.681,-2.457 l -0.473,-0.045 c 0.312,-0.041 0.446,-0.088 0.579,-0.148 m -2.888,-1.492 c 0.167,-0.024 0.34,-0.036 0.518,-0.036 0.968,0.047 1.745,0.426 2.151,1.059 -0.202,0.227 -0.454,0.424 -0.755,0.58 l -1.119,-0.103 -0.657,-1.424 z m -1.658,0.804 c 0.342,-0.388 0.86,-0.66 1.481,-0.777 -0.25,0.197 -0.332,0.273 -0.355,0.435 -0.164,0.032 -0.229,0.143 -0.193,0.333 -0.046,0.007 -0.062,0.224 -0.062,0.224 l -0.036,0.506 c -0.322,-0.164 -0.61,-0.414 -0.835,-0.721 m 0.333,28.186 c 0.379,0.277 0.841,0.57 1.363,0.914 l 2.404,-1.067 c 0.757,0.11 1.529,0.653 1.729,1.495 0.157,1.588 -1.458,2.572 -3.231,2.545 -2.268,0.156 -4.738,-2.043 -2.265,-3.887 m -0.361,-0.229 c -0.496,0.383 -0.825,0.817 -0.986,1.299 l -1.229,-1.43 -0.772,1.493 -0.252,-0.09 0.719,-1.815 -0.701,-1.068 -1.636,2.289 1.061,-3.367 -0.36,-0.971 -1.366,1.51 -0.126,-0.234 1.276,-1.725 -0.503,-1.115 -2.021,1.726 -0.233,-0.414 1.93,-2.318 -0.161,-0.916 -1.734,1.096 -0.125,-0.27 1.716,-1.348 -0.199,-1.006 -2.686,1.151 -0.125,-0.27 2.685,-1.787 -0.089,-0.916 -1.986,0.699 -0.125,-0.449 2.129,-0.844 v -0.843 h -3.333 l 0.035,-0.324 3.352,-0.702 0.108,-0.898 -2.201,-0.197 0.053,-0.342 2.183,0.09 0.109,-0.826 -3.226,-1.366 0.09,-0.457 3.226,0.762 0.251,-0.924 -2.003,-1.115 0.126,-0.25 1.949,0.951 0.161,-0.898 -2.632,-2.588 0.18,-0.27 2.722,1.582 0.432,-1.385 -1.492,-1.814 0.197,-0.25 1.439,1.418 0.34,-1.168 -1.67,-3.152 0.269,-0.325 1.869,2.219 0.701,-1.41 -0.88,-2.174 0.341,-0.197 0.773,1.814 1.148,-1.966 c 0.265,0.211 0.536,0.396 0.815,0.552 -0.052,0.202 -0.081,0.409 -0.086,0.621 0.163,-0.21 0.203,-0.373 0.264,-0.525 0.365,0.188 0.74,0.33 1.125,0.424 l -1.073,0.193 0.727,2.358 -3.89,4.984 0.216,3.422 -0.131,0.309 -0.139,0.216 -0.881,1.383 0.951,2.313 -1.4,1.824 c 1.849,6.871 1.606,7.805 4.784,10.021"
       style="fill:#646567;fill-opacity:1;fill-rule:evenodd;stroke:none"
       id="path905" /><path
       d="m 309.2822,396.0005 c 0,6.027 0.979,11.711 2.936,17.051 1.956,5.34 4.785,9.994 8.486,13.959 3.701,3.965 8.196,7.111 13.484,9.437 5.288,2.326 11.317,3.491 18.084,3.491 4.443,0 8.514,-0.397 12.216,-1.19 3.701,-0.793 7.297,-1.932 10.787,-3.412 l -4.918,-18.875 c -2.221,0.846 -4.653,1.586 -7.297,2.221 -2.644,0.634 -5.605,0.953 -8.883,0.953 -6.981,0 -12.189,-2.168 -15.626,-6.504 -3.437,-4.336 -5.156,-10.047 -5.156,-17.131 0,-7.507 1.613,-13.324 4.838,-17.447 3.226,-4.125 8.858,-6.187 16.895,-6.187 2.855,0 5.923,0.265 9.201,0.793 3.278,0.529 6.293,1.375 9.043,2.539 l 3.331,-19.352 c -2.75,-1.164 -6.188,-2.168 -10.312,-3.013 -4.125,-0.846 -8.671,-1.27 -13.642,-1.27 -7.615,0 -14.172,1.137 -19.671,3.41 -5.5,2.274 -10.021,5.367 -13.564,9.279 -3.543,3.913 -6.133,8.54 -7.773,13.879 -1.639,5.34 -2.459,11.131 -2.459,17.369 m 139.905,0 c 0,6.027 0.978,11.711 2.935,17.051 1.956,5.34 4.785,9.994 8.487,13.959 3.701,3.965 8.196,7.111 13.484,9.437 5.288,2.326 11.316,3.491 18.085,3.491 4.441,0 8.513,-0.397 12.214,-1.19 3.703,-0.793 7.298,-1.932 10.788,-3.412 l -4.918,-18.875 c -2.221,0.846 -4.653,1.586 -7.297,2.221 -2.644,0.634 -5.605,0.953 -8.884,0.953 -6.98,0 -12.189,-2.168 -15.625,-6.504 -3.438,-4.336 -5.156,-10.047 -5.156,-17.131 0,-7.507 1.613,-13.324 4.838,-17.447 3.226,-4.125 8.857,-6.187 16.895,-6.187 2.855,0 5.923,0.265 9.201,0.793 3.278,0.529 6.292,1.375 9.042,2.539 l 3.331,-19.352 c -2.749,-1.164 -6.186,-2.168 -10.31,-3.013 -4.125,-0.846 -8.673,-1.27 -13.644,-1.27 -7.614,0 -14.171,1.137 -19.671,3.41 -5.499,2.274 -10.019,5.367 -13.563,9.279 -3.543,3.913 -6.134,8.54 -7.773,13.879 -1.639,5.34 -2.459,11.131 -2.459,17.369 m -144.024,-37.91 c -4.018,-1.162 -9.2,-2.246 -15.546,-3.252 -6.345,-1.004 -13.008,-1.505 -19.988,-1.505 -7.086,0 -12.982,0.951 -17.688,2.855 -4.706,1.902 -8.435,4.572 -11.184,8.01 -2.75,3.435 -4.706,7.533 -5.87,12.293 -1.163,4.758 -1.744,9.992 -1.744,15.703 v 46.474 h 23.711 v -43.619 c 0,-7.615 1.005,-13.113 3.014,-16.496 2.009,-3.385 5.763,-5.076 11.263,-5.076 1.693,0 3.416,0.078 5.319,0.238 1.904,0.159 3.596,0.344 5.077,0.555 v 64.398 h 23.636 z m 104.53,13.166 c 4.336,0 7.403,0.422 9.2,1.27 1.799,0.846 2.698,2.484 2.698,4.916 0,1.904 -1.163,3.568 -3.491,4.996 -2.326,1.428 -5.869,3.041 -10.629,4.838 -3.701,1.375 -7.058,2.803 -10.073,4.283 -3.013,1.481 -5.578,3.252 -7.693,5.314 -2.115,2.061 -3.755,4.52 -4.918,7.375 -1.163,2.856 -1.745,6.291 -1.745,10.311 0,7.824 2.908,14.009 8.724,18.558 5.818,4.547 13.802,6.821 23.955,6.821 5.077,0 9.941,-0.45 14.594,-1.35 4.655,-0.899 8.356,-1.877 11.105,-2.934 l -4.124,-18.4 c -2.749,0.953 -5.738,1.799 -8.963,2.539 -3.226,0.74 -6.848,1.109 -10.867,1.109 -7.403,0 -11.105,-2.062 -11.105,-6.185 0,-0.951 0.159,-1.797 0.477,-2.537 0.317,-0.741 0.952,-1.455 1.903,-2.143 0.952,-0.687 2.248,-1.43 3.887,-2.23 1.638,-0.799 3.728,-1.678 6.265,-2.637 5.183,-1.92 9.466,-3.813 12.85,-5.678 3.385,-1.865 6.056,-3.879 8.012,-6.042 1.957,-2.162 3.331,-4.563 4.125,-7.201 0.793,-2.637 1.189,-5.698 1.189,-9.178 0,-8.231 -3.094,-14.455 -9.28,-18.676 -6.187,-4.221 -14.939,-6.332 -26.255,-6.332 -7.402,0 -13.563,0.635 -18.481,1.904 -4.917,1.268 -8.329,2.326 -10.232,3.172 l 3.966,19.194 c 4.018,-1.588 8.143,-2.831 12.374,-3.729 4.229,-0.898 8.407,-1.348 12.532,-1.348"
       style="fill:#e42518;fill-opacity:1;fill-rule:evenodd;stroke:none"
       id="path909" /></g></svg>
